<?xml version="1.0" encoding="utf-8"?>
<!-- Generator: Adobe Illustrator 16.0.0, SVG Export Plug-In . SVG Version: 6.00 Build 0)  -->
<!DOCTYPE svg PUBLIC "-//W3C//DTD SVG 1.1//EN" "http://www.w3.org/Graphics/SVG/1.1/DTD/svg11.dtd">
<svg version="1.1" id="Layer_1" xmlns="http://www.w3.org/2000/svg" xmlns:xlink="http://www.w3.org/1999/xlink" x="0px" y="0px"
	 width="920px" height="128px" viewBox="0 0 920 128" enable-background="new 0 0 920 128" xml:space="preserve">
<g display="none">
	<circle display="inline" cx="154" cy="9.5" r="4.5"/>
	<circle display="inline" cx="172" cy="9.5" r="4.5"/>
	<circle display="inline" cx="190" cy="9.5" r="4.5"/>
	<circle display="inline" cx="208" cy="9.5" r="4.5"/>
	<circle display="inline" cx="226" cy="9.5" r="4.5"/>
	<circle display="inline" cx="208" cy="27.5" r="4.5"/>
	<circle display="inline" cx="208" cy="45.5" r="4.5"/>
	<circle display="inline" cx="208" cy="63.5" r="4.5"/>
	<circle display="inline" cx="262" cy="9.5" r="4.5"/>
	<circle display="inline" cx="280" cy="9.5" r="4.5"/>
	<circle display="inline" cx="298" cy="9.5" r="4.5"/>
	<circle display="inline" cx="316" cy="9.5" r="4.5"/>
	<circle display="inline" cx="334" cy="9.5" r="4.5"/>
	<circle display="inline" cx="262" cy="27.5" r="4.5"/>
	<circle display="inline" cx="262" cy="45.5" r="4.5"/>
	<circle display="inline" cx="262" cy="63.5" r="4.5"/>
	<circle display="inline" cx="262" cy="81.5" r="4.5"/>
	<circle display="inline" cx="262" cy="99.5" r="4.5"/>
	<circle display="inline" cx="208" cy="81.5" r="4.5"/>
	<circle display="inline" cx="208" cy="99.5" r="4.5"/>
	<circle display="inline" cx="190" cy="117.5" r="4.5"/>
	<circle display="inline" cx="172" cy="117.5" r="4.5"/>
	<circle display="inline" cx="154" cy="99.5" r="4.5"/>
	<circle display="inline" cx="262" cy="117.5" r="4.5"/>
	<circle display="inline" cx="280" cy="117.5" r="4.5"/>
	<circle display="inline" cx="298" cy="117.5" r="4.5"/>
	<circle display="inline" cx="316" cy="117.5" r="4.5"/>
	<circle display="inline" cx="334" cy="117.5" r="4.5"/>
	<circle display="inline" cx="280" cy="63.5" r="4.5"/>
	<circle display="inline" cx="298" cy="63.5" r="4.5"/>
	<circle display="inline" cx="316" cy="63.5" r="4.5"/>
	<circle display="inline" cx="370" cy="9.5" r="4.5"/>
	<circle display="inline" cx="388" cy="9.5" r="4.5"/>
	<circle display="inline" cx="406" cy="9.5" r="4.5"/>
	<circle display="inline" cx="424" cy="9.5" r="4.5"/>
	<circle display="inline" cx="442" cy="9.5" r="4.5"/>
	<circle display="inline" cx="406" cy="27.5" r="4.5"/>
	<circle display="inline" cx="406" cy="45.5" r="4.5"/>
	<circle display="inline" cx="406" cy="63.5" r="4.5"/>
	<circle display="inline" cx="406" cy="81.5" r="4.5"/>
	<circle display="inline" cx="406" cy="99.5" r="4.5"/>
	<circle display="inline" cx="406" cy="117.5" r="4.5"/>
	<circle display="inline" cx="478" cy="18.5" r="4.5"/>
	<circle display="inline" cx="496" cy="9.5" r="4.5"/>
	<circle display="inline" cx="514" cy="9.5" r="4.5"/>
	<circle display="inline" cx="532" cy="9.5" r="4.5"/>
	<circle display="inline" cx="550" cy="27.5" r="4.5"/>
	<circle display="inline" cx="550" cy="45.5" r="4.5"/>
	<circle display="inline" cx="532" cy="63.5" r="4.5"/>
	<circle display="inline" cx="550" cy="81.5" r="4.5"/>
	<circle display="inline" cx="550" cy="99.5" r="4.5"/>
	<circle display="inline" cx="532" cy="117.5" r="4.5"/>
	<circle display="inline" cx="514" cy="117.5" r="4.5"/>
	<circle display="inline" cx="496" cy="117.5" r="4.5"/>
	<circle display="inline" cx="478" cy="99.5" r="4.5"/>
	<circle display="inline" cx="514" cy="63.5" r="4.5"/>
	<circle display="inline" cx="586" cy="9.5" r="4.5"/>
	<circle display="inline" cx="586" cy="27.5" r="4.5"/>
	<circle display="inline" cx="586" cy="45.5" r="4.5"/>
	<circle display="inline" cx="586" cy="63.5" r="4.5"/>
	<circle display="inline" cx="586" cy="81.5" r="4.5"/>
	<circle display="inline" cx="586" cy="99.5" r="4.5"/>
	<circle display="inline" cx="604" cy="117.5" r="4.5"/>
	<circle display="inline" cx="622" cy="117.5" r="4.5"/>
	<circle display="inline" cx="640" cy="117.5" r="4.5"/>
	<circle display="inline" cx="658" cy="99.5" r="4.5"/>
	<circle display="inline" cx="658" cy="81.5" r="4.5"/>
	<circle display="inline" cx="658" cy="63.5" r="4.5"/>
	<circle display="inline" cx="658" cy="45.5" r="4.5"/>
	<circle display="inline" cx="658" cy="27.5" r="4.5"/>
	<circle display="inline" cx="658" cy="9.5" r="4.5"/>
	<circle display="inline" cx="694" cy="9.5" r="4.5"/>
	<circle display="inline" cx="694" cy="27.5" r="4.5"/>
	<circle display="inline" cx="694" cy="45.5" r="4.5"/>
	<circle display="inline" cx="694" cy="63.5" r="4.5"/>
	<circle display="inline" cx="694" cy="81.5" r="4.5"/>
	<circle display="inline" cx="694" cy="99.5" r="4.5"/>
	<circle display="inline" cx="694" cy="117.5" r="4.5"/>
	<circle display="inline" cx="712" cy="9.5" r="4.5"/>
	<circle display="inline" cx="730" cy="9.5" r="4.5"/>
	<circle display="inline" cx="748" cy="9.5" r="4.5"/>
	<circle display="inline" cx="766" cy="27.5" r="4.5"/>
	<circle display="inline" cx="766" cy="45.5" r="4.5"/>
	<circle display="inline" cx="748" cy="63.5" r="4.5"/>
	<circle display="inline" cx="730" cy="63.5" r="4.5"/>
	<circle display="inline" cx="712" cy="63.5" r="4.5"/>
</g>
<g>
	<circle cx="100" cy="9.5" r="4.5"/>
	<circle cx="118" cy="9.5" r="4.5"/>
	<circle cx="136" cy="9.5" r="4.5"/>
	<circle cx="154" cy="9.5" r="4.5"/>
	<circle cx="172" cy="9.5" r="4.5"/>
	<circle cx="154" cy="27.5" r="4.5"/>
	<circle cx="154" cy="45.5" r="4.5"/>
	<circle cx="154" cy="63.5" r="4.5"/>
	<circle cx="154" cy="81.5" r="4.5"/>
	<circle cx="154" cy="99.5" r="4.5"/>
	<circle cx="208" cy="9.5" r="4.5"/>
	<circle cx="226" cy="9.5" r="4.5"/>
	<circle cx="244" cy="9.5" r="4.5"/>
	<circle cx="262" cy="9.5" r="4.5"/>
	<circle cx="280" cy="9.5" r="4.5"/>
	<circle cx="208" cy="27.5" r="4.5"/>
	<circle cx="208" cy="45.5" r="4.5"/>
	<circle cx="208" cy="63.5" r="4.5"/>
	<circle cx="208" cy="81.5" r="4.5"/>
	<circle cx="208" cy="99.5" r="4.5"/>
	<circle cx="136" cy="117.5" r="4.5"/>
	<circle cx="118" cy="117.5" r="4.5"/>
	<circle cx="100" cy="99.5" r="4.5"/>
	<circle cx="208" cy="117.5" r="4.5"/>
	<circle cx="226" cy="117.5" r="4.5"/>
	<circle cx="244" cy="117.5" r="4.5"/>
	<circle cx="262" cy="117.5" r="4.5"/>
	<circle cx="280" cy="117.5" r="4.5"/>
	<circle cx="226" cy="63.5" r="4.5"/>
	<circle cx="244" cy="63.5" r="4.5"/>
	<circle cx="262" cy="63.5" r="4.5"/>
	<circle cx="316" cy="9.5" r="4.5"/>
	<circle cx="334" cy="9.5" r="4.5"/>
	<circle cx="352" cy="9.5" r="4.5"/>
	<circle cx="370" cy="9.5" r="4.5"/>
	<circle cx="388" cy="9.5" r="4.5"/>
	<circle cx="352" cy="27.5" r="4.5"/>
	<circle cx="352" cy="45.5" r="4.5"/>
	<circle cx="352" cy="63.5" r="4.5"/>
	<circle cx="352" cy="81.5" r="4.5"/>
	<circle cx="352" cy="99.5" r="4.5"/>
	<circle cx="352" cy="117.5" r="4.5"/>
	<circle cx="424" cy="27.5" r="4.5"/>
	<circle cx="442" cy="9.5" r="4.5"/>
	<circle cx="460" cy="9.5" r="4.5"/>
	<circle cx="478" cy="9.5" r="4.5"/>
	<circle cx="496" cy="27.5" r="4.5"/>
	<circle cx="496" cy="45.5" r="4.5"/>
	<circle cx="478" cy="63.5" r="4.5"/>
	<circle cx="460" cy="81.5" r="4.5"/>
	<circle cx="442" cy="99.5" r="4.5"/>
	<circle cx="424" cy="117.5" r="4.5"/>
	<circle cx="442" cy="117.5" r="4.5"/>
	<circle cx="460" cy="117.5" r="4.5"/>
	<circle cx="478" cy="117.5" r="4.5"/>
	<circle cx="496" cy="117.5" r="4.5"/>
	<circle cx="532" cy="117.5" r="4.5"/>
	<circle cx="532" cy="99.5" r="4.5"/>
	<circle cx="532" cy="81.5" r="4.5"/>
	<circle cx="532" cy="63.5" r="4.5"/>
	<circle cx="532" cy="45.5" r="4.5"/>
	<circle cx="532" cy="27.5" r="4.5"/>
	<circle cx="532" cy="9.5" r="4.5"/>
	<circle cx="550" cy="45.5" r="4.5"/>
	<circle cx="568" cy="63.5" r="4.5"/>
	<circle cx="586" cy="81.5" r="4.5"/>
	<circle cx="604" cy="117.5" r="4.5"/>
	<circle cx="604" cy="99.5" r="4.5"/>
	<circle cx="604" cy="81.5" r="4.5"/>
	<circle cx="604" cy="63.5" r="4.5"/>
	<circle cx="604" cy="45.5" r="4.5"/>
	<circle cx="604" cy="27.5" r="4.5"/>
	<circle cx="604" cy="9.5" r="4.5"/>
	<circle cx="640" cy="9.5" r="4.5"/>
	<circle cx="640" cy="27.5" r="4.5"/>
	<circle cx="640" cy="45.5" r="4.5"/>
	<circle cx="640" cy="63.5" r="4.5"/>
	<circle cx="640" cy="81.5" r="4.5"/>
	<circle cx="640" cy="99.5" r="4.5"/>
	<circle cx="640" cy="117.5" r="4.5"/>
	<circle cx="658" cy="9.5" r="4.5"/>
	<circle cx="676" cy="9.5" r="4.5"/>
	<circle cx="694" cy="9.5" r="4.5"/>
	<circle cx="712" cy="9.5" r="4.5"/>
	<circle cx="658" cy="63.5" r="4.5"/>
	<circle cx="676" cy="63.5" r="4.5"/>
	<circle cx="694" cy="63.5" r="4.5"/>
	<circle cx="658" cy="117.5" r="4.5"/>
	<circle cx="676" cy="117.5" r="4.5"/>
	<circle cx="694" cy="117.5" r="4.5"/>
	<circle cx="712" cy="117.5" r="4.5"/>
	<circle cx="748" cy="27.5" r="4.5"/>
	<circle cx="766" cy="9.5" r="4.5"/>
	<circle cx="784" cy="9.5" r="4.5"/>
	<circle cx="802" cy="9.5" r="4.5"/>
	<circle cx="820" cy="27.5" r="4.5"/>
	<circle cx="748" cy="45.5" r="4.5"/>
	<circle cx="748" cy="63.5" r="4.5"/>
	<circle cx="748" cy="81.5" r="4.5"/>
	<circle cx="748" cy="99.5" r="4.5"/>
	<circle cx="766" cy="117.5" r="4.5"/>
	<circle cx="784" cy="117.5" r="4.5"/>
	<circle cx="802" cy="117.5" r="4.5"/>
	<circle cx="820" cy="99.5" r="4.5"/>
	<circle cx="820" cy="81.5" r="4.5"/>
	<circle cx="820" cy="63.5" r="4.5"/>
	<circle cx="820" cy="45.5" r="4.5"/>
</g>
<g display="none">
	<circle display="inline" cx="66.5" cy="9.5" r="4.5"/>
	<circle display="inline" cx="84.5" cy="9.5" r="4.5"/>
	<circle display="inline" cx="102.5" cy="9.5" r="4.5"/>
	<circle display="inline" cx="120.5" cy="9.5" r="4.5"/>
	<circle display="inline" cx="138.5" cy="9.5" r="4.5"/>
	<circle display="inline" cx="120.5" cy="27.5" r="4.5"/>
	<circle display="inline" cx="120.5" cy="45.5" r="4.5"/>
	<circle display="inline" cx="120.5" cy="63.5" r="4.5"/>
	<circle display="inline" cx="120.5" cy="81.5" r="4.5"/>
	<circle display="inline" cx="120.5" cy="99.5" r="4.5"/>
	<circle display="inline" cx="102.5" cy="117.5" r="4.5"/>
	<circle display="inline" cx="84.5" cy="117.5" r="4.5"/>
	<circle display="inline" cx="66.5" cy="99.5" r="4.5"/>
	<circle display="inline" cx="174.5" cy="9.5" r="4.5"/>
	<circle display="inline" cx="192.5" cy="9.5" r="4.5"/>
	<circle display="inline" cx="210.5" cy="9.5" r="4.5"/>
	<circle display="inline" cx="228.5" cy="9.5" r="4.5"/>
	<circle display="inline" cx="246.5" cy="9.5" r="4.5"/>
	<circle display="inline" cx="174.5" cy="27.5" r="4.5"/>
	<circle display="inline" cx="174.5" cy="45.5" r="4.5"/>
	<circle display="inline" cx="174.5" cy="63.5" r="4.5"/>
	<circle display="inline" cx="174.5" cy="81.5" r="4.5"/>
	<circle display="inline" cx="174.5" cy="99.5" r="4.5"/>
	<circle display="inline" cx="174.5" cy="117.5" r="4.5"/>
	<circle display="inline" cx="192.5" cy="63.5" r="4.5"/>
	<circle display="inline" cx="210.5" cy="63.5" r="4.5"/>
	<circle display="inline" cx="228.5" cy="63.5" r="4.5"/>
	<circle display="inline" cx="192.5" cy="117.5" r="4.5"/>
	<circle display="inline" cx="210.5" cy="117.5" r="4.5"/>
	<circle display="inline" cx="228.5" cy="117.5" r="4.5"/>
	<circle display="inline" cx="246.5" cy="117.5" r="4.5"/>
	<circle display="inline" cx="282.5" cy="9.5" r="4.5"/>
	<circle display="inline" cx="300.5" cy="9.5" r="4.5"/>
	<circle display="inline" cx="318.5" cy="9.5" r="4.5"/>
	<circle display="inline" cx="336.5" cy="9.5" r="4.5"/>
	<circle display="inline" cx="354.5" cy="9.5" r="4.5"/>
	<circle display="inline" cx="318.5" cy="27.5" r="4.5"/>
	<circle display="inline" cx="318.5" cy="45.5" r="4.5"/>
	<circle display="inline" cx="318.5" cy="63.5" r="4.5"/>
	<circle display="inline" cx="318.5" cy="81.5" r="4.5"/>
	<circle display="inline" cx="318.5" cy="99.5" r="4.5"/>
	<circle display="inline" cx="318.5" cy="117.5" r="4.5"/>
	<circle display="inline" cx="390.5" cy="9.5" r="4.5"/>
	<circle display="inline" cx="390.5" cy="27.5" r="4.5"/>
	<circle display="inline" cx="390.5" cy="45.5" r="4.5"/>
	<circle display="inline" cx="390.5" cy="63.5" r="4.5"/>
	<circle display="inline" cx="390.5" cy="81.5" r="4.5"/>
	<circle display="inline" cx="390.5" cy="99.5" r="4.5"/>
	<circle display="inline" cx="390.5" cy="117.5" r="4.5"/>
	<circle display="inline" cx="408.5" cy="9.5" r="4.5"/>
	<circle display="inline" cx="426.5" cy="9.5" r="4.5"/>
	<circle display="inline" cx="444.5" cy="9.5" r="4.5"/>
	<circle display="inline" cx="462.5" cy="27.5" r="4.5"/>
	<circle display="inline" cx="462.5" cy="45.5" r="4.5"/>
	<circle display="inline" cx="444.5" cy="63.5" r="4.5"/>
	<circle display="inline" cx="426.5" cy="63.5" r="4.5"/>
	<circle display="inline" cx="408.5" cy="63.5" r="4.5"/>
	<circle display="inline" cx="426.5" cy="81.5" r="4.5"/>
	<circle display="inline" cx="444.5" cy="99.5" r="4.5"/>
	<circle display="inline" cx="462.5" cy="117.5" r="4.5"/>
	<circle display="inline" cx="498.5" cy="45.5" r="4.5"/>
	<circle display="inline" cx="516.5" cy="27.5" r="4.5"/>
	<circle display="inline" cx="534.5" cy="9.5" r="4.5"/>
	<circle display="inline" cx="552.5" cy="27.5" r="4.5"/>
	<circle display="inline" cx="570.5" cy="45.5" r="4.5"/>
	<circle display="inline" cx="498.5" cy="63.5" r="4.5"/>
	<circle display="inline" cx="498.5" cy="81.5" r="4.5"/>
	<circle display="inline" cx="498.5" cy="99.5" r="4.5"/>
	<circle display="inline" cx="498.5" cy="117.5" r="4.5"/>
	<circle display="inline" cx="570.5" cy="63.5" r="4.5"/>
	<circle display="inline" cx="570.5" cy="81.5" r="4.5"/>
	<circle display="inline" cx="570.5" cy="99.5" r="4.5"/>
	<circle display="inline" cx="570.5" cy="117.5" r="4.5"/>
	<circle display="inline" cx="516.5" cy="63.5" r="4.5"/>
	<circle display="inline" cx="534.5" cy="63.5" r="4.5"/>
	<circle display="inline" cx="552.5" cy="63.5" r="4.5"/>
	<circle display="inline" cx="606.5" cy="9.5" r="4.5"/>
	<circle display="inline" cx="606.5" cy="27.5" r="4.5"/>
	<circle display="inline" cx="606.5" cy="45.5" r="4.5"/>
	<circle display="inline" cx="606.5" cy="63.5" r="4.5"/>
	<circle display="inline" cx="606.5" cy="81.5" r="4.5"/>
	<circle display="inline" cx="606.5" cy="99.5" r="4.5"/>
	<circle display="inline" cx="606.5" cy="117.5" r="4.5"/>
	<circle display="inline" cx="624.5" cy="9.5" r="4.5"/>
	<circle display="inline" cx="642.5" cy="9.5" r="4.5"/>
	<circle display="inline" cx="660.5" cy="9.5" r="4.5"/>
	<circle display="inline" cx="678.5" cy="27.5" r="4.5"/>
	<circle display="inline" cx="678.5" cy="45.5" r="4.5"/>
	<circle display="inline" cx="660.5" cy="63.5" r="4.5"/>
	<circle display="inline" cx="642.5" cy="63.5" r="4.5"/>
	<circle display="inline" cx="624.5" cy="63.5" r="4.5"/>
	<circle display="inline" cx="714.5" cy="9.5" r="4.5"/>
	<circle display="inline" cx="732.5" cy="9.5" r="4.5"/>
	<circle display="inline" cx="750.5" cy="9.5" r="4.5"/>
	<circle display="inline" cx="732.5" cy="27.5" r="4.5"/>
	<circle display="inline" cx="732.5" cy="45.5" r="4.5"/>
	<circle display="inline" cx="732.5" cy="63.5" r="4.5"/>
	<circle display="inline" cx="732.5" cy="81.5" r="4.5"/>
	<circle display="inline" cx="732.5" cy="99.5" r="4.5"/>
	<circle display="inline" cx="732.5" cy="117.5" r="4.5"/>
	<circle display="inline" cx="714.5" cy="117.5" r="4.5"/>
	<circle display="inline" cx="750.5" cy="117.5" r="4.5"/>
	<circle display="inline" cx="786.5" cy="9.5" r="4.5"/>
	<circle display="inline" cx="786.5" cy="27.5" r="4.5"/>
	<circle display="inline" cx="786.5" cy="45.5" r="4.5"/>
	<circle display="inline" cx="786.5" cy="63.5" r="4.5"/>
	<circle display="inline" cx="786.5" cy="81.5" r="4.5"/>
	<circle display="inline" cx="786.5" cy="99.5" r="4.5"/>
	<circle display="inline" cx="786.5" cy="117.5" r="4.5"/>
	<circle display="inline" cx="804.5" cy="9.5" r="4.5"/>
	<circle display="inline" cx="822.5" cy="9.5" r="4.5"/>
	<circle display="inline" cx="840.5" cy="9.5" r="4.5"/>
	<circle display="inline" cx="858.5" cy="27.5" r="4.5"/>
	<circle display="inline" cx="804.5" cy="117.5" r="4.5"/>
	<circle display="inline" cx="822.5" cy="117.5" r="4.5"/>
	<circle display="inline" cx="840.5" cy="117.5" r="4.5"/>
	<circle display="inline" cx="858.5" cy="45.5" r="4.5"/>
	<circle display="inline" cx="858.5" cy="63.5" r="4.5"/>
	<circle display="inline" cx="858.5" cy="81.5" r="4.5"/>
	<circle display="inline" cx="858.5" cy="99.5" r="4.5"/>
</g>
<g display="none">
	<g display="inline">
		<circle cx="66.5" cy="9.5" r="4.5"/>
		<circle cx="84.5" cy="9.5" r="4.5"/>
		<circle cx="102.5" cy="9.5" r="4.5"/>
		<circle cx="120.5" cy="9.5" r="4.5"/>
		<circle cx="138.5" cy="9.5" r="4.5"/>
		<circle cx="120.5" cy="27.5" r="4.5"/>
		<circle cx="120.5" cy="45.5" r="4.5"/>
		<circle cx="120.5" cy="63.5" r="4.5"/>
		<circle cx="120.5" cy="81.5" r="4.5"/>
		<circle cx="120.5" cy="99.5" r="4.5"/>
		<circle cx="174.5" cy="9.5" r="4.5"/>
		<circle cx="192.5" cy="9.5" r="4.5"/>
		<circle cx="210.5" cy="9.5" r="4.5"/>
		<circle cx="228.5" cy="9.5" r="4.5"/>
		<circle cx="246.5" cy="9.5" r="4.5"/>
		<circle cx="174.5" cy="27.5" r="4.5"/>
		<circle cx="174.5" cy="45.5" r="4.5"/>
		<circle cx="174.5" cy="63.5" r="4.5"/>
		<circle cx="174.5" cy="81.5" r="4.5"/>
		<circle cx="174.5" cy="99.5" r="4.5"/>
		<circle cx="102.5" cy="117.5" r="4.5"/>
		<circle cx="84.5" cy="117.5" r="4.5"/>
		<circle cx="66.5" cy="99.5" r="4.5"/>
		<circle cx="174.5" cy="117.5" r="4.5"/>
		<circle cx="192.5" cy="117.5" r="4.5"/>
		<circle cx="210.5" cy="117.5" r="4.5"/>
		<circle cx="228.5" cy="117.5" r="4.5"/>
		<circle cx="246.5" cy="117.5" r="4.5"/>
		<circle cx="192.5" cy="63.5" r="4.5"/>
		<circle cx="210.5" cy="63.5" r="4.5"/>
		<circle cx="228.5" cy="63.5" r="4.5"/>
		<circle cx="282.5" cy="9.5" r="4.5"/>
		<circle cx="300.5" cy="9.5" r="4.5"/>
		<circle cx="318.5" cy="9.5" r="4.5"/>
		<circle cx="336.5" cy="9.5" r="4.5"/>
		<circle cx="354.5" cy="9.5" r="4.5"/>
		<circle cx="318.5" cy="27.5" r="4.5"/>
		<circle cx="318.5" cy="45.5" r="4.5"/>
		<circle cx="318.5" cy="63.5" r="4.5"/>
		<circle cx="318.5" cy="81.5" r="4.5"/>
		<circle cx="318.5" cy="99.5" r="4.5"/>
		<circle cx="318.5" cy="117.5" r="4.5"/>
		<circle cx="390.5" cy="27.5" r="4.5"/>
		<circle cx="408.5" cy="9.5" r="4.5"/>
		<circle cx="426.5" cy="9.5" r="4.5"/>
		<circle cx="444.5" cy="9.5" r="4.5"/>
		<circle cx="462.5" cy="27.5" r="4.5"/>
		<circle cx="462.5" cy="45.5" r="4.5"/>
		<circle cx="444.5" cy="63.5" r="4.5"/>
		<circle cx="426.5" cy="81.5" r="4.5"/>
		<circle cx="408.5" cy="99.5" r="4.5"/>
		<circle cx="390.5" cy="117.5" r="4.5"/>
		<circle cx="408.5" cy="117.5" r="4.5"/>
		<circle cx="426.5" cy="117.5" r="4.5"/>
		<circle cx="444.5" cy="117.5" r="4.5"/>
		<circle cx="462.5" cy="117.5" r="4.5"/>
		<circle cx="498.5" cy="117.5" r="4.5"/>
		<circle cx="498.5" cy="99.5" r="4.5"/>
		<circle cx="498.5" cy="81.5" r="4.5"/>
		<circle cx="498.5" cy="63.5" r="4.5"/>
		<circle cx="498.5" cy="45.5" r="4.5"/>
		<circle cx="498.5" cy="27.5" r="4.5"/>
		<circle cx="498.5" cy="9.5" r="4.5"/>
		<circle cx="516.5" cy="45.5" r="4.5"/>
		<circle cx="534.5" cy="63.5" r="4.5"/>
		<circle cx="552.5" cy="81.5" r="4.5"/>
		<circle cx="570.5" cy="117.5" r="4.5"/>
		<circle cx="570.5" cy="99.5" r="4.5"/>
		<circle cx="570.5" cy="81.5" r="4.5"/>
		<circle cx="570.5" cy="63.5" r="4.5"/>
		<circle cx="570.5" cy="45.5" r="4.5"/>
		<circle cx="570.5" cy="27.5" r="4.5"/>
		<circle cx="570.5" cy="9.5" r="4.5"/>
		<circle cx="606.5" cy="9.5" r="4.5"/>
		<circle cx="606.5" cy="27.5" r="4.5"/>
		<circle cx="606.5" cy="45.5" r="4.5"/>
		<circle cx="606.5" cy="63.5" r="4.5"/>
		<circle cx="606.5" cy="81.5" r="4.5"/>
		<circle cx="606.5" cy="99.5" r="4.5"/>
		<circle cx="606.5" cy="117.5" r="4.5"/>
		<circle cx="624.5" cy="9.5" r="4.5"/>
		<circle cx="642.5" cy="9.5" r="4.5"/>
		<circle cx="660.5" cy="9.5" r="4.5"/>
		<circle cx="678.5" cy="9.5" r="4.5"/>
		<circle cx="624.5" cy="63.5" r="4.5"/>
		<circle cx="642.5" cy="63.5" r="4.5"/>
		<circle cx="660.5" cy="63.5" r="4.5"/>
		<circle cx="624.5" cy="117.5" r="4.5"/>
		<circle cx="642.5" cy="117.5" r="4.5"/>
		<circle cx="660.5" cy="117.5" r="4.5"/>
		<circle cx="678.5" cy="117.5" r="4.5"/>
		<circle cx="714.5" cy="27.5" r="4.5"/>
		<circle cx="732.5" cy="9.5" r="4.5"/>
		<circle cx="750.5" cy="9.5" r="4.5"/>
		<circle cx="768.5" cy="9.5" r="4.5"/>
		<circle cx="786.5" cy="27.5" r="4.5"/>
		<circle cx="714.5" cy="45.5" r="4.5"/>
		<circle cx="714.5" cy="63.5" r="4.5"/>
		<circle cx="714.5" cy="81.5" r="4.5"/>
		<circle cx="714.5" cy="99.5" r="4.5"/>
		<circle cx="732.5" cy="117.5" r="4.5"/>
		<circle cx="750.5" cy="117.5" r="4.5"/>
		<circle cx="768.5" cy="117.5" r="4.5"/>
		<circle cx="786.5" cy="99.5" r="4.5"/>
		<circle cx="786.5" cy="81.5" r="4.5"/>
		<circle cx="786.5" cy="63.5" r="4.5"/>
		<circle cx="786.5" cy="45.5" r="4.5"/>
	</g>
	<circle display="inline" cx="822.5" cy="117.5" r="4.5"/>
	<circle display="inline" cx="840.5" cy="117.5" r="4.5"/>
	<circle display="inline" cx="858.5" cy="117.5" r="4.5"/>
	<circle display="inline" cx="876.5" cy="99.5" r="4.5"/>
	<circle display="inline" cx="858.5" cy="81.5" r="4.5"/>
	<circle display="inline" cx="840.5" cy="81.5" r="4.5"/>
	<circle display="inline" cx="822.5" cy="63.5" r="4.5"/>
	<circle display="inline" cx="840.5" cy="45.5" r="4.5"/>
	<circle display="inline" cx="858.5" cy="45.5" r="4.5"/>
	<circle display="inline" cx="876.5" cy="45.5" r="4.5"/>
</g>
</svg>
