<?xml version="1.0" encoding="utf-8"?>
<!-- Generator: Adobe Illustrator 16.0.0, SVG Export Plug-In . SVG Version: 6.00 Build 0)  -->
<!DOCTYPE svg PUBLIC "-//W3C//DTD SVG 1.1//EN" "http://www.w3.org/Graphics/SVG/1.1/DTD/svg11.dtd">
<svg version="1.1" id="Layer_1" xmlns="http://www.w3.org/2000/svg" xmlns:xlink="http://www.w3.org/1999/xlink" x="0px" y="0px"
	 width="1620px" height="220px" viewBox="0 0 1620 220" enable-background="new 0 0 1620 220" xml:space="preserve">
<circle stroke="#000000" stroke-width="6" stroke-miterlimit="10" cx="115.5" cy="56.5" r="4.5"/>
<circle stroke="#000000" stroke-width="6" stroke-miterlimit="10" cx="115.5" cy="74.5" r="4.5"/>
<circle stroke="#000000" stroke-width="6" stroke-miterlimit="10" cx="115.5" cy="92.5" r="4.5"/>
<circle stroke="#000000" stroke-width="6" stroke-miterlimit="10" cx="115.5" cy="110.5" r="4.5"/>
<circle stroke="#000000" stroke-width="6" stroke-miterlimit="10" cx="115.5" cy="128.5" r="4.5"/>
<circle stroke="#000000" stroke-width="6" stroke-miterlimit="10" cx="115.5" cy="146.5" r="4.5"/>
<circle stroke="#000000" stroke-width="6" stroke-miterlimit="10" cx="115.5" cy="164.5" r="4.5"/>
<circle stroke="#000000" stroke-width="6" stroke-miterlimit="10" cx="133.5" cy="56.5" r="4.5"/>
<circle stroke="#000000" stroke-width="6" stroke-miterlimit="10" cx="133.5" cy="164.5" r="4.5"/>
<circle stroke="#000000" stroke-width="6" stroke-miterlimit="10" cx="151.5" cy="56.5" r="4.5"/>
<circle stroke="#000000" stroke-width="6" stroke-miterlimit="10" cx="169.5" cy="74.5" r="4.5"/>
<circle stroke="#000000" stroke-width="6" stroke-miterlimit="10" cx="187.5" cy="92.5" r="4.5"/>
<circle stroke="#000000" stroke-width="6" stroke-miterlimit="10" cx="187.5" cy="110.5" r="4.5"/>
<circle stroke="#000000" stroke-width="6" stroke-miterlimit="10" cx="187.5" cy="128.5" r="4.5"/>
<circle stroke="#000000" stroke-width="6" stroke-miterlimit="10" cx="169.5" cy="146.5" r="4.5"/>
<circle stroke="#000000" stroke-width="6" stroke-miterlimit="10" cx="151.5" cy="164.5" r="4.5"/>
<circle stroke="#000000" stroke-width="6" stroke-miterlimit="10" cx="223.5" cy="74.5" r="4.5"/>
<circle stroke="#000000" stroke-width="6" stroke-miterlimit="10" cx="223.5" cy="92.5" r="4.5"/>
<circle stroke="#000000" stroke-width="6" stroke-miterlimit="10" cx="223.5" cy="110.5" r="4.5"/>
<circle stroke="#000000" stroke-width="6" stroke-miterlimit="10" cx="223.5" cy="128.5" r="4.5"/>
<circle stroke="#000000" stroke-width="6" stroke-miterlimit="10" cx="223.5" cy="146.5" r="4.5"/>
<circle stroke="#000000" stroke-width="6" stroke-miterlimit="10" cx="241.5" cy="164.5" r="4.5"/>
<circle stroke="#000000" stroke-width="6" stroke-miterlimit="10" cx="259.5" cy="164.5" r="4.5"/>
<circle stroke="#000000" stroke-width="6" stroke-miterlimit="10" cx="277.5" cy="164.5" r="4.5"/>
<circle stroke="#000000" stroke-width="6" stroke-miterlimit="10" cx="295.5" cy="146.5" r="4.5"/>
<circle stroke="#000000" stroke-width="6" stroke-miterlimit="10" cx="295.5" cy="128.5" r="4.5"/>
<circle stroke="#000000" stroke-width="6" stroke-miterlimit="10" cx="295.5" cy="110.5" r="4.5"/>
<circle stroke="#000000" stroke-width="6" stroke-miterlimit="10" cx="295.5" cy="92.5" r="4.5"/>
<circle stroke="#000000" stroke-width="6" stroke-miterlimit="10" cx="295.5" cy="74.5" r="4.5"/>
<circle stroke="#000000" stroke-width="6" stroke-miterlimit="10" cx="241.5" cy="56.5" r="4.5"/>
<circle stroke="#000000" stroke-width="6" stroke-miterlimit="10" cx="259.5" cy="56.5" r="4.5"/>
<circle stroke="#000000" stroke-width="6" stroke-miterlimit="10" cx="277.5" cy="56.5" r="4.5"/>
<circle stroke="#000000" stroke-width="6" stroke-miterlimit="10" cx="331.5" cy="56.5" r="4.5"/>
<circle stroke="#000000" stroke-width="6" stroke-miterlimit="10" cx="331.5" cy="74.5" r="4.5"/>
<circle stroke="#000000" stroke-width="6" stroke-miterlimit="10" cx="331.5" cy="92.5" r="4.5"/>
<circle stroke="#000000" stroke-width="6" stroke-miterlimit="10" cx="331.5" cy="110.5" r="4.5"/>
<circle stroke="#000000" stroke-width="6" stroke-miterlimit="10" cx="331.5" cy="128.5" r="4.5"/>
<circle stroke="#000000" stroke-width="6" stroke-miterlimit="10" cx="331.5" cy="146.5" r="4.5"/>
<circle stroke="#000000" stroke-width="6" stroke-miterlimit="10" cx="331.5" cy="164.5" r="4.5"/>
<circle stroke="#000000" stroke-width="6" stroke-miterlimit="10" cx="403.5" cy="164.5" r="4.5"/>
<circle stroke="#000000" stroke-width="6" stroke-miterlimit="10" cx="403.5" cy="146.5" r="4.5"/>
<circle stroke="#000000" stroke-width="6" stroke-miterlimit="10" cx="403.5" cy="128.5" r="4.5"/>
<circle stroke="#000000" stroke-width="6" stroke-miterlimit="10" cx="403.5" cy="110.5" r="4.5"/>
<circle stroke="#000000" stroke-width="6" stroke-miterlimit="10" cx="403.5" cy="92.5" r="4.5"/>
<circle stroke="#000000" stroke-width="6" stroke-miterlimit="10" cx="403.5" cy="74.5" r="4.5"/>
<circle stroke="#000000" stroke-width="6" stroke-miterlimit="10" cx="403.5" cy="56.5" r="4.5"/>
<circle stroke="#000000" stroke-width="6" stroke-miterlimit="10" cx="367.5" cy="110.5" r="4.5"/>
<circle stroke="#000000" stroke-width="6" stroke-miterlimit="10" cx="349.5" cy="92.5" r="4.5"/>
<circle stroke="#000000" stroke-width="6" stroke-miterlimit="10" cx="385.5" cy="128.5" r="4.5"/>
<circle stroke="#000000" stroke-width="6" stroke-miterlimit="10" cx="439.5" cy="74.5" r="4.5"/>
<circle stroke="#000000" stroke-width="6" stroke-miterlimit="10" cx="439.5" cy="92.5" r="4.5"/>
<circle stroke="#000000" stroke-width="6" stroke-miterlimit="10" cx="439.5" cy="110.5" r="4.5"/>
<circle stroke="#000000" stroke-width="6" stroke-miterlimit="10" cx="439.5" cy="128.5" r="4.5"/>
<circle stroke="#000000" stroke-width="6" stroke-miterlimit="10" cx="439.5" cy="146.5" r="4.5"/>
<circle stroke="#000000" stroke-width="6" stroke-miterlimit="10" cx="457.5" cy="164.5" r="4.5"/>
<circle stroke="#000000" stroke-width="6" stroke-miterlimit="10" cx="475.5" cy="164.5" r="4.5"/>
<circle stroke="#000000" stroke-width="6" stroke-miterlimit="10" cx="493.5" cy="164.5" r="4.5"/>
<circle stroke="#000000" stroke-width="6" stroke-miterlimit="10" cx="511.5" cy="146.5" r="4.5"/>
<circle stroke="#000000" stroke-width="6" stroke-miterlimit="10" cx="511.5" cy="128.5" r="4.5"/>
<circle stroke="#000000" stroke-width="6" stroke-miterlimit="10" cx="511.5" cy="110.5" r="4.5"/>
<circle stroke="#000000" stroke-width="6" stroke-miterlimit="10" cx="493.5" cy="110.5" r="4.5"/>
<circle stroke="#000000" stroke-width="6" stroke-miterlimit="10" cx="457.5" cy="56.5" r="4.5"/>
<circle stroke="#000000" stroke-width="6" stroke-miterlimit="10" cx="475.5" cy="56.5" r="4.5"/>
<circle stroke="#000000" stroke-width="6" stroke-miterlimit="10" cx="493.5" cy="56.5" r="4.5"/>
<circle stroke="#000000" stroke-width="6" stroke-miterlimit="10" cx="511.5" cy="74.5" r="4.5"/>
<circle stroke="#000000" stroke-width="6" stroke-miterlimit="10" cx="547.5" cy="56.5" r="4.5"/>
<circle stroke="#000000" stroke-width="6" stroke-miterlimit="10" cx="547.5" cy="74.5" r="4.5"/>
<circle stroke="#000000" stroke-width="6" stroke-miterlimit="10" cx="547.5" cy="92.5" r="4.5"/>
<circle stroke="#000000" stroke-width="6" stroke-miterlimit="10" cx="547.5" cy="110.5" r="4.5"/>
<circle stroke="#000000" stroke-width="6" stroke-miterlimit="10" cx="547.5" cy="128.5" r="4.5"/>
<circle stroke="#000000" stroke-width="6" stroke-miterlimit="10" cx="547.5" cy="146.5" r="4.5"/>
<circle stroke="#000000" stroke-width="6" stroke-miterlimit="10" cx="547.5" cy="164.5" r="4.5"/>
<circle stroke="#000000" stroke-width="6" stroke-miterlimit="10" cx="619.5" cy="164.5" r="4.5"/>
<circle stroke="#000000" stroke-width="6" stroke-miterlimit="10" cx="619.5" cy="146.5" r="4.5"/>
<circle stroke="#000000" stroke-width="6" stroke-miterlimit="10" cx="619.5" cy="128.5" r="4.5"/>
<circle stroke="#000000" stroke-width="6" stroke-miterlimit="10" cx="619.5" cy="110.5" r="4.5"/>
<circle stroke="#000000" stroke-width="6" stroke-miterlimit="10" cx="619.5" cy="92.5" r="4.5"/>
<circle stroke="#000000" stroke-width="6" stroke-miterlimit="10" cx="619.5" cy="74.5" r="4.5"/>
<circle stroke="#000000" stroke-width="6" stroke-miterlimit="10" cx="619.5" cy="56.5" r="4.5"/>
<circle stroke="#000000" stroke-width="6" stroke-miterlimit="10" cx="583.5" cy="128.5" r="4.5"/>
<circle stroke="#000000" stroke-width="6" stroke-miterlimit="10" cx="565.5" cy="146.5" r="4.5"/>
<circle stroke="#000000" stroke-width="6" stroke-miterlimit="10" cx="601.5" cy="146.5" r="4.5"/>
<circle stroke="#000000" stroke-width="6" stroke-miterlimit="10" cx="583.5" cy="110.5" r="4.5"/>
<circle stroke="#000000" stroke-width="6" stroke-miterlimit="10" cx="655.5" cy="56.5" r="4.5"/>
<circle stroke="#000000" stroke-width="6" stroke-miterlimit="10" cx="655.5" cy="74.5" r="4.5"/>
<circle stroke="#000000" stroke-width="6" stroke-miterlimit="10" cx="655.5" cy="92.5" r="4.5"/>
<circle stroke="#000000" stroke-width="6" stroke-miterlimit="10" cx="655.5" cy="110.5" r="4.5"/>
<circle stroke="#000000" stroke-width="6" stroke-miterlimit="10" cx="655.5" cy="128.5" r="4.5"/>
<circle stroke="#000000" stroke-width="6" stroke-miterlimit="10" cx="655.5" cy="146.5" r="4.5"/>
<circle stroke="#000000" stroke-width="6" stroke-miterlimit="10" cx="655.5" cy="164.5" r="4.5"/>
<circle stroke="#000000" stroke-width="6" stroke-miterlimit="10" cx="673.5" cy="110.5" r="4.5"/>
<circle stroke="#000000" stroke-width="6" stroke-miterlimit="10" cx="691.5" cy="110.5" r="4.5"/>
<circle stroke="#000000" stroke-width="6" stroke-miterlimit="10" cx="709.5" cy="110.5" r="4.5"/>
<circle stroke="#000000" stroke-width="6" stroke-miterlimit="10" cx="727.5" cy="56.5" r="4.5"/>
<circle stroke="#000000" stroke-width="6" stroke-miterlimit="10" cx="727.5" cy="74.5" r="4.5"/>
<circle stroke="#000000" stroke-width="6" stroke-miterlimit="10" cx="727.5" cy="92.5" r="4.5"/>
<circle stroke="#000000" stroke-width="6" stroke-miterlimit="10" cx="727.5" cy="110.5" r="4.5"/>
<circle stroke="#000000" stroke-width="6" stroke-miterlimit="10" cx="727.5" cy="128.5" r="4.5"/>
<circle stroke="#000000" stroke-width="6" stroke-miterlimit="10" cx="727.5" cy="146.5" r="4.5"/>
<circle stroke="#000000" stroke-width="6" stroke-miterlimit="10" cx="727.5" cy="164.5" r="4.5"/>
<circle stroke="#000000" stroke-width="6" stroke-miterlimit="10" cx="763.5" cy="164.5" r="4.5"/>
<circle stroke="#000000" stroke-width="6" stroke-miterlimit="10" cx="763.5" cy="146.5" r="4.5"/>
<circle stroke="#000000" stroke-width="6" stroke-miterlimit="10" cx="763.5" cy="128.5" r="4.5"/>
<circle stroke="#000000" stroke-width="6" stroke-miterlimit="10" cx="763.5" cy="110.5" r="4.5"/>
<circle stroke="#000000" stroke-width="6" stroke-miterlimit="10" cx="763.5" cy="92.5" r="4.5"/>
<circle stroke="#000000" stroke-width="6" stroke-miterlimit="10" cx="781.5" cy="74.5" r="4.5"/>
<circle stroke="#000000" stroke-width="6" stroke-miterlimit="10" cx="799.5" cy="56.5" r="4.5"/>
<circle stroke="#000000" stroke-width="6" stroke-miterlimit="10" cx="817.5" cy="74.5" r="4.5"/>
<circle stroke="#000000" stroke-width="6" stroke-miterlimit="10" cx="835.5" cy="92.5" r="4.5"/>
<circle stroke="#000000" stroke-width="6" stroke-miterlimit="10" cx="835.5" cy="110.5" r="4.5"/>
<circle stroke="#000000" stroke-width="6" stroke-miterlimit="10" cx="835.5" cy="128.5" r="4.5"/>
<circle stroke="#000000" stroke-width="6" stroke-miterlimit="10" cx="835.5" cy="146.5" r="4.5"/>
<circle stroke="#000000" stroke-width="6" stroke-miterlimit="10" cx="835.5" cy="164.5" r="4.5"/>
<circle stroke="#000000" stroke-width="6" stroke-miterlimit="10" cx="781.5" cy="110.5" r="4.5"/>
<circle stroke="#000000" stroke-width="6" stroke-miterlimit="10" cx="799.5" cy="110.5" r="4.5"/>
<circle stroke="#000000" stroke-width="6" stroke-miterlimit="10" cx="817.5" cy="110.5" r="4.5"/>
<circle stroke="#000000" stroke-width="6" stroke-miterlimit="10" cx="871.5" cy="74.5" r="4.5"/>
<circle stroke="#000000" stroke-width="6" stroke-miterlimit="10" cx="889.5" cy="56.5" r="4.5"/>
<circle stroke="#000000" stroke-width="6" stroke-miterlimit="10" cx="907.5" cy="56.5" r="4.5"/>
<circle stroke="#000000" stroke-width="6" stroke-miterlimit="10" cx="925.5" cy="56.5" r="4.5"/>
<circle stroke="#000000" stroke-width="6" stroke-miterlimit="10" cx="943.5" cy="74.5" r="4.5"/>
<circle stroke="#000000" stroke-width="6" stroke-miterlimit="10" cx="871.5" cy="92.5" r="4.5"/>
<circle stroke="#000000" stroke-width="6" stroke-miterlimit="10" cx="889.5" cy="110.5" r="4.5"/>
<circle stroke="#000000" stroke-width="6" stroke-miterlimit="10" cx="907.5" cy="110.5" r="4.5"/>
<circle stroke="#000000" stroke-width="6" stroke-miterlimit="10" cx="925.5" cy="110.5" r="4.5"/>
<circle stroke="#000000" stroke-width="6" stroke-miterlimit="10" cx="943.5" cy="128.5" r="4.5"/>
<circle stroke="#000000" stroke-width="6" stroke-miterlimit="10" cx="943.5" cy="146.5" r="4.5"/>
<circle stroke="#000000" stroke-width="6" stroke-miterlimit="10" cx="925.5" cy="164.5" r="4.5"/>
<circle stroke="#000000" stroke-width="6" stroke-miterlimit="10" cx="907.5" cy="164.5" r="4.5"/>
<circle stroke="#000000" stroke-width="6" stroke-miterlimit="10" cx="889.5" cy="164.5" r="4.5"/>
<circle stroke="#000000" stroke-width="6" stroke-miterlimit="10" cx="871.5" cy="146.5" r="4.5"/>
<circle stroke="#000000" stroke-width="6" stroke-miterlimit="10" cx="979.5" cy="56.5" r="4.5"/>
<circle stroke="#000000" stroke-width="6" stroke-miterlimit="10" cx="1051.5" cy="56.5" r="4.5"/>
<circle stroke="#000000" stroke-width="6" stroke-miterlimit="10" cx="1015.5" cy="110.5" r="4.5"/>
<circle stroke="#000000" stroke-width="6" stroke-miterlimit="10" cx="1015.5" cy="128.5" r="4.5"/>
<circle stroke="#000000" stroke-width="6" stroke-miterlimit="10" cx="1015.5" cy="146.5" r="4.5"/>
<circle stroke="#000000" stroke-width="6" stroke-miterlimit="10" cx="1015.5" cy="164.5" r="4.5"/>
<circle stroke="#000000" stroke-width="6" stroke-miterlimit="10" cx="979.5" cy="74.5" r="4.5"/>
<circle stroke="#000000" stroke-width="6" stroke-miterlimit="10" cx="1051.5" cy="74.5" r="4.5"/>
<circle stroke="#000000" stroke-width="6" stroke-miterlimit="10" cx="997.5" cy="92.5" r="4.5"/>
<circle stroke="#000000" stroke-width="6" stroke-miterlimit="10" cx="1033.5" cy="92.5" r="4.5"/>
<circle stroke="#000000" stroke-width="6" stroke-miterlimit="10" cx="1087.5" cy="74.5" r="4.5"/>
<circle stroke="#000000" stroke-width="6" stroke-miterlimit="10" cx="1105.5" cy="56.5" r="4.5"/>
<circle stroke="#000000" stroke-width="6" stroke-miterlimit="10" cx="1123.5" cy="56.5" r="4.5"/>
<circle stroke="#000000" stroke-width="6" stroke-miterlimit="10" cx="1141.5" cy="56.5" r="4.5"/>
<circle stroke="#000000" stroke-width="6" stroke-miterlimit="10" cx="1159.5" cy="74.5" r="4.5"/>
<circle stroke="#000000" stroke-width="6" stroke-miterlimit="10" cx="1087.5" cy="92.5" r="4.5"/>
<circle stroke="#000000" stroke-width="6" stroke-miterlimit="10" cx="1105.5" cy="110.5" r="4.5"/>
<circle stroke="#000000" stroke-width="6" stroke-miterlimit="10" cx="1123.5" cy="110.5" r="4.5"/>
<circle stroke="#000000" stroke-width="6" stroke-miterlimit="10" cx="1141.5" cy="110.5" r="4.5"/>
<circle stroke="#000000" stroke-width="6" stroke-miterlimit="10" cx="1159.5" cy="128.5" r="4.5"/>
<circle stroke="#000000" stroke-width="6" stroke-miterlimit="10" cx="1159.5" cy="146.5" r="4.5"/>
<circle stroke="#000000" stroke-width="6" stroke-miterlimit="10" cx="1141.5" cy="164.5" r="4.5"/>
<circle stroke="#000000" stroke-width="6" stroke-miterlimit="10" cx="1123.5" cy="164.5" r="4.5"/>
<circle stroke="#000000" stroke-width="6" stroke-miterlimit="10" cx="1105.5" cy="164.5" r="4.5"/>
<circle stroke="#000000" stroke-width="6" stroke-miterlimit="10" cx="1087.5" cy="146.5" r="4.5"/>
<circle stroke="#000000" stroke-width="6" stroke-miterlimit="10" cx="1195.5" cy="56.5" r="4.5"/>
<circle stroke="#000000" stroke-width="6" stroke-miterlimit="10" cx="1213.5" cy="56.5" r="4.5"/>
<circle stroke="#000000" stroke-width="6" stroke-miterlimit="10" cx="1231.5" cy="56.5" r="4.5"/>
<circle stroke="#000000" stroke-width="6" stroke-miterlimit="10" cx="1249.5" cy="56.5" r="4.5"/>
<circle stroke="#000000" stroke-width="6" stroke-miterlimit="10" cx="1267.5" cy="56.5" r="4.5"/>
<circle stroke="#000000" stroke-width="6" stroke-miterlimit="10" cx="1231.5" cy="74.5" r="4.5"/>
<circle stroke="#000000" stroke-width="6" stroke-miterlimit="10" cx="1231.5" cy="92.5" r="4.5"/>
<circle stroke="#000000" stroke-width="6" stroke-miterlimit="10" cx="1231.5" cy="110.5" r="4.5"/>
<circle stroke="#000000" stroke-width="6" stroke-miterlimit="10" cx="1231.5" cy="128.5" r="4.5"/>
<circle stroke="#000000" stroke-width="6" stroke-miterlimit="10" cx="1231.5" cy="146.5" r="4.5"/>
<circle stroke="#000000" stroke-width="6" stroke-miterlimit="10" cx="1231.5" cy="164.5" r="4.5"/>
<circle stroke="#000000" stroke-width="6" stroke-miterlimit="10" cx="1303.5" cy="56.5" r="4.5"/>
<circle stroke="#000000" stroke-width="6" stroke-miterlimit="10" cx="1303.5" cy="74.5" r="4.5"/>
<circle stroke="#000000" stroke-width="6" stroke-miterlimit="10" cx="1303.5" cy="92.5" r="4.5"/>
<circle stroke="#000000" stroke-width="6" stroke-miterlimit="10" cx="1303.5" cy="110.5" r="4.5"/>
<circle stroke="#000000" stroke-width="6" stroke-miterlimit="10" cx="1303.5" cy="128.5" r="4.5"/>
<circle stroke="#000000" stroke-width="6" stroke-miterlimit="10" cx="1303.5" cy="146.5" r="4.5"/>
<circle stroke="#000000" stroke-width="6" stroke-miterlimit="10" cx="1303.5" cy="164.5" r="4.5"/>
<circle stroke="#000000" stroke-width="6" stroke-miterlimit="10" cx="1321.5" cy="164.5" r="4.5"/>
<circle stroke="#000000" stroke-width="6" stroke-miterlimit="10" cx="1339.5" cy="164.5" r="4.5"/>
<circle stroke="#000000" stroke-width="6" stroke-miterlimit="10" cx="1357.5" cy="164.5" r="4.5"/>
<circle stroke="#000000" stroke-width="6" stroke-miterlimit="10" cx="1375.5" cy="164.5" r="4.5"/>
<circle stroke="#000000" stroke-width="6" stroke-miterlimit="10" cx="1321.5" cy="110.5" r="4.5"/>
<circle stroke="#000000" stroke-width="6" stroke-miterlimit="10" cx="1339.5" cy="110.5" r="4.5"/>
<circle stroke="#000000" stroke-width="6" stroke-miterlimit="10" cx="1357.5" cy="110.5" r="4.5"/>
<circle stroke="#000000" stroke-width="6" stroke-miterlimit="10" cx="1321.5" cy="56.5" r="4.5"/>
<circle stroke="#000000" stroke-width="6" stroke-miterlimit="10" cx="1339.5" cy="56.5" r="4.5"/>
<circle stroke="#000000" stroke-width="6" stroke-miterlimit="10" cx="1357.5" cy="56.5" r="4.5"/>
<circle stroke="#000000" stroke-width="6" stroke-miterlimit="10" cx="1375.5" cy="56.5" r="4.5"/>
<circle stroke="#000000" stroke-width="6" stroke-miterlimit="10" cx="1411.5" cy="56.5" r="4.5"/>
<circle stroke="#000000" stroke-width="6" stroke-miterlimit="10" cx="1411.5" cy="74.5" r="4.5"/>
<circle stroke="#000000" stroke-width="6" stroke-miterlimit="10" cx="1411.5" cy="92.5" r="4.5"/>
<circle stroke="#000000" stroke-width="6" stroke-miterlimit="10" cx="1411.5" cy="110.5" r="4.5"/>
<circle stroke="#000000" stroke-width="6" stroke-miterlimit="10" cx="1411.5" cy="128.5" r="4.5"/>
<circle stroke="#000000" stroke-width="6" stroke-miterlimit="10" cx="1411.5" cy="146.5" r="4.5"/>
<circle stroke="#000000" stroke-width="6" stroke-miterlimit="10" cx="1411.5" cy="164.5" r="4.5"/>
<circle stroke="#000000" stroke-width="6" stroke-miterlimit="10" cx="1429.5" cy="74.5" r="4.5"/>
<circle stroke="#000000" stroke-width="6" stroke-miterlimit="10" cx="1447.5" cy="92.5" r="4.5"/>
<circle stroke="#000000" stroke-width="6" stroke-miterlimit="10" cx="1465.5" cy="74.5" r="4.5"/>
<circle stroke="#000000" stroke-width="6" stroke-miterlimit="10" cx="1483.5" cy="56.5" r="4.5"/>
<circle stroke="#000000" stroke-width="6" stroke-miterlimit="10" cx="1483.5" cy="74.5" r="4.5"/>
<circle stroke="#000000" stroke-width="6" stroke-miterlimit="10" cx="1447.5" cy="110.5" r="4.5"/>
<circle stroke="#000000" stroke-width="6" stroke-miterlimit="10" cx="1483.5" cy="92.5" r="4.5"/>
<circle stroke="#000000" stroke-width="6" stroke-miterlimit="10" cx="1483.5" cy="110.5" r="4.5"/>
<circle stroke="#000000" stroke-width="6" stroke-miterlimit="10" cx="1483.5" cy="128.5" r="4.5"/>
<circle stroke="#000000" stroke-width="6" stroke-miterlimit="10" cx="1483.5" cy="146.5" r="4.5"/>
<circle stroke="#000000" stroke-width="6" stroke-miterlimit="10" cx="1483.5" cy="164.5" r="4.5"/>
</svg>
