<?xml version="1.0" encoding="utf-8"?>
<!-- Generator: Adobe Illustrator 16.0.0, SVG Export Plug-In . SVG Version: 6.00 Build 0)  -->
<!DOCTYPE svg PUBLIC "-//W3C//DTD SVG 1.1//EN" "http://www.w3.org/Graphics/SVG/1.1/DTD/svg11.dtd">
<svg version="1.1" id="Layer_1" xmlns="http://www.w3.org/2000/svg" xmlns:xlink="http://www.w3.org/1999/xlink" x="0px" y="0px"
	 width="920px" height="128px" viewBox="0 0 920 128" enable-background="new 0 0 920 128" xml:space="preserve">
<g display="none">
	<circle display="inline" cx="154" cy="9.5" r="4.5"/>
	<circle display="inline" cx="172" cy="9.5" r="4.5"/>
	<circle display="inline" cx="190" cy="9.5" r="4.5"/>
	<circle display="inline" cx="208" cy="9.5" r="4.5"/>
	<circle display="inline" cx="226" cy="9.5" r="4.5"/>
	<circle display="inline" cx="208" cy="27.5" r="4.5"/>
	<circle display="inline" cx="208" cy="45.5" r="4.5"/>
	<circle display="inline" cx="208" cy="63.5" r="4.5"/>
	<circle display="inline" cx="262" cy="9.5" r="4.5"/>
	<circle display="inline" cx="280" cy="9.5" r="4.5"/>
	<circle display="inline" cx="298" cy="9.5" r="4.5"/>
	<circle display="inline" cx="316" cy="9.5" r="4.5"/>
	<circle display="inline" cx="334" cy="9.5" r="4.5"/>
	<circle display="inline" cx="262" cy="27.5" r="4.5"/>
	<circle display="inline" cx="262" cy="45.5" r="4.5"/>
	<circle display="inline" cx="262" cy="63.5" r="4.5"/>
	<circle display="inline" cx="262" cy="81.5" r="4.5"/>
	<circle display="inline" cx="262" cy="99.5" r="4.5"/>
	<circle display="inline" cx="208" cy="81.5" r="4.5"/>
	<circle display="inline" cx="208" cy="99.5" r="4.5"/>
	<circle display="inline" cx="190" cy="117.5" r="4.5"/>
	<circle display="inline" cx="172" cy="117.5" r="4.5"/>
	<circle display="inline" cx="154" cy="99.5" r="4.5"/>
	<circle display="inline" cx="262" cy="117.5" r="4.5"/>
	<circle display="inline" cx="280" cy="117.5" r="4.5"/>
	<circle display="inline" cx="298" cy="117.5" r="4.5"/>
	<circle display="inline" cx="316" cy="117.5" r="4.5"/>
	<circle display="inline" cx="334" cy="117.5" r="4.5"/>
	<circle display="inline" cx="280" cy="63.5" r="4.5"/>
	<circle display="inline" cx="298" cy="63.5" r="4.5"/>
	<circle display="inline" cx="316" cy="63.5" r="4.5"/>
	<circle display="inline" cx="370" cy="9.5" r="4.5"/>
	<circle display="inline" cx="388" cy="9.5" r="4.5"/>
	<circle display="inline" cx="406" cy="9.5" r="4.5"/>
	<circle display="inline" cx="424" cy="9.5" r="4.5"/>
	<circle display="inline" cx="442" cy="9.5" r="4.5"/>
	<circle display="inline" cx="406" cy="27.5" r="4.5"/>
	<circle display="inline" cx="406" cy="45.5" r="4.5"/>
	<circle display="inline" cx="406" cy="63.5" r="4.5"/>
	<circle display="inline" cx="406" cy="81.5" r="4.5"/>
	<circle display="inline" cx="406" cy="99.5" r="4.5"/>
	<circle display="inline" cx="406" cy="117.5" r="4.5"/>
	<circle display="inline" cx="478" cy="18.5" r="4.5"/>
	<circle display="inline" cx="496" cy="9.5" r="4.5"/>
	<circle display="inline" cx="514" cy="9.5" r="4.5"/>
	<circle display="inline" cx="532" cy="9.5" r="4.5"/>
	<circle display="inline" cx="550" cy="27.5" r="4.5"/>
	<circle display="inline" cx="550" cy="45.5" r="4.5"/>
	<circle display="inline" cx="532" cy="63.5" r="4.5"/>
	<circle display="inline" cx="550" cy="81.5" r="4.5"/>
	<circle display="inline" cx="550" cy="99.5" r="4.5"/>
	<circle display="inline" cx="532" cy="117.5" r="4.5"/>
	<circle display="inline" cx="514" cy="117.5" r="4.5"/>
	<circle display="inline" cx="496" cy="117.5" r="4.5"/>
	<circle display="inline" cx="478" cy="99.5" r="4.5"/>
	<circle display="inline" cx="514" cy="63.5" r="4.5"/>
	<circle display="inline" cx="586" cy="9.5" r="4.5"/>
	<circle display="inline" cx="586" cy="27.5" r="4.5"/>
	<circle display="inline" cx="586" cy="45.5" r="4.5"/>
	<circle display="inline" cx="586" cy="63.5" r="4.5"/>
	<circle display="inline" cx="586" cy="81.5" r="4.5"/>
	<circle display="inline" cx="586" cy="99.5" r="4.5"/>
	<circle display="inline" cx="604" cy="117.5" r="4.5"/>
	<circle display="inline" cx="622" cy="117.5" r="4.5"/>
	<circle display="inline" cx="640" cy="117.5" r="4.5"/>
	<circle display="inline" cx="658" cy="99.5" r="4.5"/>
	<circle display="inline" cx="658" cy="81.5" r="4.5"/>
	<circle display="inline" cx="658" cy="63.5" r="4.5"/>
	<circle display="inline" cx="658" cy="45.5" r="4.5"/>
	<circle display="inline" cx="658" cy="27.5" r="4.5"/>
	<circle display="inline" cx="658" cy="9.5" r="4.5"/>
	<circle display="inline" cx="694" cy="9.5" r="4.5"/>
	<circle display="inline" cx="694" cy="27.5" r="4.5"/>
	<circle display="inline" cx="694" cy="45.5" r="4.5"/>
	<circle display="inline" cx="694" cy="63.5" r="4.5"/>
	<circle display="inline" cx="694" cy="81.5" r="4.5"/>
	<circle display="inline" cx="694" cy="99.5" r="4.5"/>
	<circle display="inline" cx="694" cy="117.5" r="4.5"/>
	<circle display="inline" cx="712" cy="9.5" r="4.5"/>
	<circle display="inline" cx="730" cy="9.5" r="4.5"/>
	<circle display="inline" cx="748" cy="9.5" r="4.5"/>
	<circle display="inline" cx="766" cy="27.5" r="4.5"/>
	<circle display="inline" cx="766" cy="45.5" r="4.5"/>
	<circle display="inline" cx="748" cy="63.5" r="4.5"/>
	<circle display="inline" cx="730" cy="63.5" r="4.5"/>
	<circle display="inline" cx="712" cy="63.5" r="4.5"/>
</g>
<g display="none">
	<circle display="inline" cx="100" cy="9.5" r="4.5"/>
	<circle display="inline" cx="118" cy="9.5" r="4.5"/>
	<circle display="inline" cx="136" cy="9.5" r="4.5"/>
	<circle display="inline" cx="154" cy="9.5" r="4.5"/>
	<circle display="inline" cx="172" cy="9.5" r="4.5"/>
	<circle display="inline" cx="154" cy="27.5" r="4.5"/>
	<circle display="inline" cx="154" cy="45.5" r="4.5"/>
	<circle display="inline" cx="154" cy="63.5" r="4.5"/>
	<circle display="inline" cx="154" cy="81.5" r="4.5"/>
	<circle display="inline" cx="154" cy="99.5" r="4.5"/>
	<circle display="inline" cx="208" cy="9.5" r="4.5"/>
	<circle display="inline" cx="226" cy="9.5" r="4.5"/>
	<circle display="inline" cx="244" cy="9.5" r="4.5"/>
	<circle display="inline" cx="262" cy="9.5" r="4.5"/>
	<circle display="inline" cx="280" cy="9.5" r="4.5"/>
	<circle display="inline" cx="208" cy="27.5" r="4.5"/>
	<circle display="inline" cx="208" cy="45.5" r="4.5"/>
	<circle display="inline" cx="208" cy="63.5" r="4.5"/>
	<circle display="inline" cx="208" cy="81.5" r="4.5"/>
	<circle display="inline" cx="208" cy="99.5" r="4.5"/>
	<circle display="inline" cx="136" cy="117.5" r="4.5"/>
	<circle display="inline" cx="118" cy="117.5" r="4.5"/>
	<circle display="inline" cx="100" cy="99.5" r="4.5"/>
	<circle display="inline" cx="208" cy="117.5" r="4.5"/>
	<circle display="inline" cx="226" cy="117.5" r="4.5"/>
	<circle display="inline" cx="244" cy="117.5" r="4.5"/>
	<circle display="inline" cx="262" cy="117.5" r="4.5"/>
	<circle display="inline" cx="280" cy="117.5" r="4.5"/>
	<circle display="inline" cx="226" cy="63.5" r="4.5"/>
	<circle display="inline" cx="244" cy="63.5" r="4.5"/>
	<circle display="inline" cx="262" cy="63.5" r="4.5"/>
	<circle display="inline" cx="316" cy="9.5" r="4.5"/>
	<circle display="inline" cx="334" cy="9.5" r="4.5"/>
	<circle display="inline" cx="352" cy="9.5" r="4.5"/>
	<circle display="inline" cx="370" cy="9.5" r="4.5"/>
	<circle display="inline" cx="388" cy="9.5" r="4.5"/>
	<circle display="inline" cx="352" cy="27.5" r="4.5"/>
	<circle display="inline" cx="352" cy="45.5" r="4.5"/>
	<circle display="inline" cx="352" cy="63.5" r="4.5"/>
	<circle display="inline" cx="352" cy="81.5" r="4.5"/>
	<circle display="inline" cx="352" cy="99.5" r="4.5"/>
	<circle display="inline" cx="352" cy="117.5" r="4.5"/>
	<circle display="inline" cx="424" cy="27.5" r="4.5"/>
	<circle display="inline" cx="442" cy="9.5" r="4.5"/>
	<circle display="inline" cx="460" cy="9.5" r="4.5"/>
	<circle display="inline" cx="478" cy="9.5" r="4.5"/>
	<circle display="inline" cx="496" cy="27.5" r="4.5"/>
	<circle display="inline" cx="496" cy="45.5" r="4.5"/>
	<circle display="inline" cx="478" cy="63.5" r="4.5"/>
	<circle display="inline" cx="460" cy="81.5" r="4.5"/>
	<circle display="inline" cx="442" cy="99.5" r="4.5"/>
	<circle display="inline" cx="424" cy="117.5" r="4.5"/>
	<circle display="inline" cx="442" cy="117.5" r="4.5"/>
	<circle display="inline" cx="460" cy="117.5" r="4.5"/>
	<circle display="inline" cx="478" cy="117.5" r="4.5"/>
	<circle display="inline" cx="496" cy="117.5" r="4.5"/>
	<circle display="inline" cx="532" cy="117.5" r="4.5"/>
	<circle display="inline" cx="532" cy="99.5" r="4.5"/>
	<circle display="inline" cx="532" cy="81.5" r="4.5"/>
	<circle display="inline" cx="532" cy="63.5" r="4.5"/>
	<circle display="inline" cx="532" cy="45.5" r="4.5"/>
	<circle display="inline" cx="532" cy="27.5" r="4.5"/>
	<circle display="inline" cx="532" cy="9.5" r="4.5"/>
	<circle display="inline" cx="550" cy="45.5" r="4.5"/>
	<circle display="inline" cx="568" cy="63.5" r="4.5"/>
	<circle display="inline" cx="586" cy="81.5" r="4.5"/>
	<circle display="inline" cx="604" cy="117.5" r="4.5"/>
	<circle display="inline" cx="604" cy="99.5" r="4.5"/>
	<circle display="inline" cx="604" cy="81.5" r="4.5"/>
	<circle display="inline" cx="604" cy="63.5" r="4.5"/>
	<circle display="inline" cx="604" cy="45.5" r="4.5"/>
	<circle display="inline" cx="604" cy="27.5" r="4.5"/>
	<circle display="inline" cx="604" cy="9.5" r="4.5"/>
	<circle display="inline" cx="640" cy="9.5" r="4.5"/>
	<circle display="inline" cx="640" cy="27.5" r="4.5"/>
	<circle display="inline" cx="640" cy="45.5" r="4.5"/>
	<circle display="inline" cx="640" cy="63.5" r="4.5"/>
	<circle display="inline" cx="640" cy="81.5" r="4.5"/>
	<circle display="inline" cx="640" cy="99.5" r="4.5"/>
	<circle display="inline" cx="640" cy="117.5" r="4.5"/>
	<circle display="inline" cx="658" cy="9.5" r="4.5"/>
	<circle display="inline" cx="676" cy="9.5" r="4.5"/>
	<circle display="inline" cx="694" cy="9.5" r="4.5"/>
	<circle display="inline" cx="712" cy="9.5" r="4.5"/>
	<circle display="inline" cx="658" cy="63.5" r="4.5"/>
	<circle display="inline" cx="676" cy="63.5" r="4.5"/>
	<circle display="inline" cx="694" cy="63.5" r="4.5"/>
	<circle display="inline" cx="658" cy="117.5" r="4.5"/>
	<circle display="inline" cx="676" cy="117.5" r="4.5"/>
	<circle display="inline" cx="694" cy="117.5" r="4.5"/>
	<circle display="inline" cx="712" cy="117.5" r="4.5"/>
	<circle display="inline" cx="748" cy="27.5" r="4.5"/>
	<circle display="inline" cx="766" cy="9.5" r="4.5"/>
	<circle display="inline" cx="784" cy="9.5" r="4.5"/>
	<circle display="inline" cx="802" cy="9.5" r="4.5"/>
	<circle display="inline" cx="820" cy="27.5" r="4.5"/>
	<circle display="inline" cx="748" cy="45.5" r="4.5"/>
	<circle display="inline" cx="748" cy="63.5" r="4.5"/>
	<circle display="inline" cx="748" cy="81.5" r="4.5"/>
	<circle display="inline" cx="748" cy="99.5" r="4.5"/>
	<circle display="inline" cx="766" cy="117.5" r="4.5"/>
	<circle display="inline" cx="784" cy="117.5" r="4.5"/>
	<circle display="inline" cx="802" cy="117.5" r="4.5"/>
	<circle display="inline" cx="820" cy="99.5" r="4.5"/>
	<circle display="inline" cx="820" cy="81.5" r="4.5"/>
	<circle display="inline" cx="820" cy="63.5" r="4.5"/>
	<circle display="inline" cx="820" cy="45.5" r="4.5"/>
</g>
<g display="none">
	<circle display="inline" cx="64" cy="9.5" r="4.5"/>
	<circle display="inline" cx="82" cy="9.5" r="4.5"/>
	<circle display="inline" cx="100" cy="9.5" r="4.5"/>
	<circle display="inline" cx="118" cy="9.5" r="4.5"/>
	<circle display="inline" cx="136" cy="9.5" r="4.5"/>
	<circle display="inline" cx="118" cy="27.5" r="4.5"/>
	<circle display="inline" cx="118" cy="45.5" r="4.5"/>
	<circle display="inline" cx="118" cy="63.5" r="4.5"/>
	<circle display="inline" cx="118" cy="81.5" r="4.5"/>
	<circle display="inline" cx="118" cy="99.5" r="4.5"/>
	<circle display="inline" cx="100" cy="117.5" r="4.5"/>
	<circle display="inline" cx="82" cy="117.5" r="4.5"/>
	<circle display="inline" cx="64" cy="99.5" r="4.5"/>
	<circle display="inline" cx="172" cy="9.5" r="4.5"/>
	<circle display="inline" cx="190" cy="9.5" r="4.5"/>
	<circle display="inline" cx="208" cy="9.5" r="4.5"/>
	<circle display="inline" cx="226" cy="9.5" r="4.5"/>
	<circle display="inline" cx="244" cy="9.5" r="4.5"/>
	<circle display="inline" cx="172" cy="27.5" r="4.5"/>
	<circle display="inline" cx="172" cy="45.5" r="4.5"/>
	<circle display="inline" cx="172" cy="63.5" r="4.5"/>
	<circle display="inline" cx="172" cy="81.5" r="4.5"/>
	<circle display="inline" cx="172" cy="99.5" r="4.5"/>
	<circle display="inline" cx="172" cy="117.5" r="4.5"/>
	<circle display="inline" cx="190" cy="63.5" r="4.5"/>
	<circle display="inline" cx="208" cy="63.5" r="4.5"/>
	<circle display="inline" cx="226" cy="63.5" r="4.5"/>
	<circle display="inline" cx="190" cy="117.5" r="4.5"/>
	<circle display="inline" cx="208" cy="117.5" r="4.5"/>
	<circle display="inline" cx="226" cy="117.5" r="4.5"/>
	<circle display="inline" cx="244" cy="117.5" r="4.5"/>
	<circle display="inline" cx="280" cy="9.5" r="4.5"/>
	<circle display="inline" cx="298" cy="9.5" r="4.5"/>
	<circle display="inline" cx="316" cy="9.5" r="4.5"/>
	<circle display="inline" cx="334" cy="9.5" r="4.5"/>
	<circle display="inline" cx="352" cy="9.5" r="4.5"/>
	<circle display="inline" cx="316" cy="27.5" r="4.5"/>
	<circle display="inline" cx="316" cy="45.5" r="4.5"/>
	<circle display="inline" cx="316" cy="63.5" r="4.5"/>
	<circle display="inline" cx="316" cy="81.5" r="4.5"/>
	<circle display="inline" cx="316" cy="99.5" r="4.5"/>
	<circle display="inline" cx="316" cy="117.5" r="4.5"/>
	<circle display="inline" cx="388" cy="9.5" r="4.5"/>
	<circle display="inline" cx="388" cy="27.5" r="4.5"/>
	<circle display="inline" cx="388" cy="45.5" r="4.5"/>
	<circle display="inline" cx="388" cy="63.5" r="4.5"/>
	<circle display="inline" cx="388" cy="81.5" r="4.5"/>
	<circle display="inline" cx="388" cy="99.5" r="4.5"/>
	<circle display="inline" cx="388" cy="117.5" r="4.5"/>
	<circle display="inline" cx="406" cy="9.5" r="4.5"/>
	<circle display="inline" cx="424" cy="9.5" r="4.5"/>
	<circle display="inline" cx="442" cy="9.5" r="4.5"/>
	<circle display="inline" cx="460" cy="27.5" r="4.5"/>
	<circle display="inline" cx="460" cy="45.5" r="4.5"/>
	<circle display="inline" cx="442" cy="63.5" r="4.5"/>
	<circle display="inline" cx="424" cy="63.5" r="4.5"/>
	<circle display="inline" cx="406" cy="63.5" r="4.5"/>
	<circle display="inline" cx="424" cy="81.5" r="4.5"/>
	<circle display="inline" cx="442" cy="99.5" r="4.5"/>
	<circle display="inline" cx="460" cy="117.5" r="4.5"/>
	<circle display="inline" cx="496" cy="45.5" r="4.5"/>
	<circle display="inline" cx="514" cy="27.5" r="4.5"/>
	<circle display="inline" cx="532" cy="9.5" r="4.5"/>
	<circle display="inline" cx="550" cy="27.5" r="4.5"/>
	<circle display="inline" cx="568" cy="45.5" r="4.5"/>
	<circle display="inline" cx="496" cy="63.5" r="4.5"/>
	<circle display="inline" cx="496" cy="81.5" r="4.5"/>
	<circle display="inline" cx="496" cy="99.5" r="4.5"/>
	<circle display="inline" cx="496" cy="117.5" r="4.5"/>
	<circle display="inline" cx="568" cy="63.5" r="4.5"/>
	<circle display="inline" cx="568" cy="81.5" r="4.5"/>
	<circle display="inline" cx="568" cy="99.5" r="4.5"/>
	<circle display="inline" cx="568" cy="117.5" r="4.5"/>
	<circle display="inline" cx="514" cy="63.5" r="4.5"/>
	<circle display="inline" cx="532" cy="63.5" r="4.5"/>
	<circle display="inline" cx="550" cy="63.5" r="4.5"/>
	<circle display="inline" cx="604" cy="9.5" r="4.5"/>
	<circle display="inline" cx="604" cy="27.5" r="4.5"/>
	<circle display="inline" cx="604" cy="45.5" r="4.5"/>
	<circle display="inline" cx="604" cy="63.5" r="4.5"/>
	<circle display="inline" cx="604" cy="81.5" r="4.5"/>
	<circle display="inline" cx="604" cy="99.5" r="4.5"/>
	<circle display="inline" cx="604" cy="117.5" r="4.5"/>
	<circle display="inline" cx="622" cy="9.5" r="4.5"/>
	<circle display="inline" cx="640" cy="9.5" r="4.5"/>
	<circle display="inline" cx="658" cy="9.5" r="4.5"/>
	<circle display="inline" cx="676" cy="27.5" r="4.5"/>
	<circle display="inline" cx="676" cy="45.5" r="4.5"/>
	<circle display="inline" cx="658" cy="63.5" r="4.5"/>
	<circle display="inline" cx="640" cy="63.5" r="4.5"/>
	<circle display="inline" cx="622" cy="63.5" r="4.5"/>
	<circle display="inline" cx="712" cy="9.5" r="4.5"/>
	<circle display="inline" cx="730" cy="9.5" r="4.5"/>
	<circle display="inline" cx="748" cy="9.5" r="4.5"/>
	<circle display="inline" cx="730" cy="27.5" r="4.5"/>
	<circle display="inline" cx="730" cy="45.5" r="4.5"/>
	<circle display="inline" cx="730" cy="63.5" r="4.5"/>
	<circle display="inline" cx="730" cy="81.5" r="4.5"/>
	<circle display="inline" cx="730" cy="99.5" r="4.5"/>
	<circle display="inline" cx="730" cy="117.5" r="4.5"/>
	<circle display="inline" cx="712" cy="117.5" r="4.5"/>
	<circle display="inline" cx="748" cy="117.5" r="4.5"/>
	<circle display="inline" cx="784" cy="9.5" r="4.5"/>
	<circle display="inline" cx="784" cy="27.5" r="4.5"/>
	<circle display="inline" cx="784" cy="45.5" r="4.5"/>
	<circle display="inline" cx="784" cy="63.5" r="4.5"/>
	<circle display="inline" cx="784" cy="81.5" r="4.5"/>
	<circle display="inline" cx="784" cy="99.5" r="4.5"/>
	<circle display="inline" cx="784" cy="117.5" r="4.5"/>
	<circle display="inline" cx="802" cy="9.5" r="4.5"/>
	<circle display="inline" cx="820" cy="9.5" r="4.5"/>
	<circle display="inline" cx="838" cy="9.5" r="4.5"/>
	<circle display="inline" cx="856" cy="27.5" r="4.5"/>
	<circle display="inline" cx="802" cy="117.5" r="4.5"/>
	<circle display="inline" cx="820" cy="117.5" r="4.5"/>
	<circle display="inline" cx="838" cy="117.5" r="4.5"/>
	<circle display="inline" cx="856" cy="45.5" r="4.5"/>
	<circle display="inline" cx="856" cy="63.5" r="4.5"/>
	<circle display="inline" cx="856" cy="81.5" r="4.5"/>
	<circle display="inline" cx="856" cy="99.5" r="4.5"/>
</g>
<g>
	<g>
		<circle cx="55" cy="9.5" r="4.5"/>
		<circle cx="73" cy="9.5" r="4.5"/>
		<circle cx="91" cy="9.5" r="4.5"/>
		<circle cx="109" cy="9.5" r="4.5"/>
		<circle cx="127" cy="9.5" r="4.5"/>
		<circle cx="109" cy="27.5" r="4.5"/>
		<circle cx="109" cy="45.5" r="4.5"/>
		<circle cx="109" cy="63.5" r="4.5"/>
		<circle cx="109" cy="81.5" r="4.5"/>
		<circle cx="109" cy="99.5" r="4.5"/>
		<circle cx="163" cy="9.5" r="4.5"/>
		<circle cx="181" cy="9.5" r="4.5"/>
		<circle cx="199" cy="9.5" r="4.5"/>
		<circle cx="217" cy="9.5" r="4.5"/>
		<circle cx="235" cy="9.5" r="4.5"/>
		<circle cx="163" cy="27.5" r="4.5"/>
		<circle cx="163" cy="45.5" r="4.5"/>
		<circle cx="163" cy="63.5" r="4.5"/>
		<circle cx="163" cy="81.5" r="4.5"/>
		<circle cx="163" cy="99.5" r="4.5"/>
		<circle cx="91" cy="117.5" r="4.5"/>
		<circle cx="73" cy="117.5" r="4.5"/>
		<circle cx="55" cy="99.5" r="4.5"/>
		<circle cx="163" cy="117.5" r="4.5"/>
		<circle cx="181" cy="117.5" r="4.5"/>
		<circle cx="199" cy="117.5" r="4.5"/>
		<circle cx="217" cy="117.5" r="4.5"/>
		<circle cx="235" cy="117.5" r="4.5"/>
		<circle cx="181" cy="63.5" r="4.5"/>
		<circle cx="199" cy="63.5" r="4.5"/>
		<circle cx="217" cy="63.5" r="4.5"/>
		<circle cx="271" cy="9.5" r="4.5"/>
		<circle cx="289" cy="9.5" r="4.5"/>
		<circle cx="307" cy="9.5" r="4.5"/>
		<circle cx="325" cy="9.5" r="4.5"/>
		<circle cx="343" cy="9.5" r="4.5"/>
		<circle cx="307" cy="27.5" r="4.5"/>
		<circle cx="307" cy="45.5" r="4.5"/>
		<circle cx="307" cy="63.5" r="4.5"/>
		<circle cx="307" cy="81.5" r="4.5"/>
		<circle cx="307" cy="99.5" r="4.5"/>
		<circle cx="307" cy="117.5" r="4.5"/>
		<circle cx="379" cy="27.5" r="4.5"/>
		<circle cx="397" cy="9.5" r="4.5"/>
		<circle cx="415" cy="9.5" r="4.5"/>
		<circle cx="433" cy="9.5" r="4.5"/>
		<circle cx="451" cy="27.5" r="4.5"/>
		<circle cx="451" cy="45.5" r="4.5"/>
		<circle cx="433" cy="63.5" r="4.5"/>
		<circle cx="415" cy="81.5" r="4.5"/>
		<circle cx="397" cy="99.5" r="4.5"/>
		<circle cx="379" cy="117.5" r="4.5"/>
		<circle cx="397" cy="117.5" r="4.5"/>
		<circle cx="415" cy="117.5" r="4.5"/>
		<circle cx="433" cy="117.5" r="4.5"/>
		<circle cx="451" cy="117.5" r="4.5"/>
		<circle cx="487" cy="117.5" r="4.5"/>
		<circle cx="487" cy="99.5" r="4.5"/>
		<circle cx="487" cy="81.5" r="4.5"/>
		<circle cx="487" cy="63.5" r="4.5"/>
		<circle cx="487" cy="45.5" r="4.5"/>
		<circle cx="487" cy="27.5" r="4.5"/>
		<circle cx="487" cy="9.5" r="4.5"/>
		<circle cx="505" cy="45.5" r="4.5"/>
		<circle cx="523" cy="63.5" r="4.5"/>
		<circle cx="541" cy="81.5" r="4.5"/>
		<circle cx="559" cy="117.5" r="4.5"/>
		<circle cx="559" cy="99.5" r="4.5"/>
		<circle cx="559" cy="81.5" r="4.5"/>
		<circle cx="559" cy="63.5" r="4.5"/>
		<circle cx="559" cy="45.5" r="4.5"/>
		<circle cx="559" cy="27.5" r="4.5"/>
		<circle cx="559" cy="9.5" r="4.5"/>
		<circle cx="595" cy="9.5" r="4.5"/>
		<circle cx="595" cy="27.5" r="4.5"/>
		<circle cx="595" cy="45.5" r="4.5"/>
		<circle cx="595" cy="63.5" r="4.5"/>
		<circle cx="595" cy="81.5" r="4.5"/>
		<circle cx="595" cy="99.5" r="4.5"/>
		<circle cx="595" cy="117.5" r="4.5"/>
		<circle cx="613" cy="9.5" r="4.5"/>
		<circle cx="631" cy="9.5" r="4.5"/>
		<circle cx="649" cy="9.5" r="4.5"/>
		<circle cx="667" cy="9.5" r="4.5"/>
		<circle cx="613" cy="63.5" r="4.5"/>
		<circle cx="631" cy="63.5" r="4.5"/>
		<circle cx="649" cy="63.5" r="4.5"/>
		<circle cx="613" cy="117.5" r="4.5"/>
		<circle cx="631" cy="117.5" r="4.5"/>
		<circle cx="649" cy="117.5" r="4.5"/>
		<circle cx="667" cy="117.5" r="4.5"/>
		<circle cx="703" cy="27.5" r="4.5"/>
		<circle cx="721" cy="9.5" r="4.5"/>
		<circle cx="739" cy="9.5" r="4.5"/>
		<circle cx="757" cy="9.5" r="4.5"/>
		<circle cx="775" cy="27.5" r="4.5"/>
		<circle cx="703" cy="45.5" r="4.5"/>
		<circle cx="703" cy="63.5" r="4.5"/>
		<circle cx="703" cy="81.5" r="4.5"/>
		<circle cx="703" cy="99.5" r="4.5"/>
		<circle cx="721" cy="117.5" r="4.5"/>
		<circle cx="739" cy="117.5" r="4.5"/>
		<circle cx="757" cy="117.5" r="4.5"/>
		<circle cx="775" cy="99.5" r="4.5"/>
		<circle cx="775" cy="81.5" r="4.5"/>
		<circle cx="775" cy="63.5" r="4.5"/>
		<circle cx="775" cy="45.5" r="4.5"/>
	</g>
	<circle cx="811" cy="117.5" r="4.5"/>
	<circle cx="829" cy="117.5" r="4.5"/>
	<circle cx="847" cy="117.5" r="4.5"/>
	<circle cx="865" cy="99.5" r="4.5"/>
	<circle cx="847" cy="81.5" r="4.5"/>
	<circle cx="829" cy="81.5" r="4.5"/>
	<circle cx="811" cy="63.5" r="4.5"/>
	<circle cx="829" cy="45.5" r="4.5"/>
	<circle cx="847" cy="45.5" r="4.5"/>
	<circle cx="865" cy="45.5" r="4.5"/>
</g>
</svg>
