<?xml version="1.0" encoding="utf-8"?>
<!-- Generator: Adobe Illustrator 16.0.0, SVG Export Plug-In . SVG Version: 6.00 Build 0)  -->
<!DOCTYPE svg PUBLIC "-//W3C//DTD SVG 1.1//EN" "http://www.w3.org/Graphics/SVG/1.1/DTD/svg11.dtd">
<svg version="1.1" id="Layer_1" xmlns="http://www.w3.org/2000/svg" xmlns:xlink="http://www.w3.org/1999/xlink" x="0px" y="0px"
	 width="1620px" height="220px" viewBox="0 0 1620 220" enable-background="new 0 0 1620 220" xml:space="preserve">
<g enable-background="new    ">
	<path d="M112.079,52.796c2.483,0,4.497,2.014,4.497,4.496c0,2.483-2.013,4.497-4.497,4.497s-4.496-2.014-4.496-4.497
		C107.583,54.81,109.596,52.796,112.079,52.796z M112.079,70.782c2.483,0,4.497,2.013,4.497,4.496s-2.013,4.497-4.497,4.497
		s-4.496-2.014-4.496-4.497S109.596,70.782,112.079,70.782z M112.079,88.769c2.483,0,4.497,2.013,4.497,4.496
		s-2.013,4.496-4.497,4.496s-4.496-2.013-4.496-4.496S109.596,88.769,112.079,88.769z M112.079,106.754
		c2.483,0,4.497,2.014,4.497,4.497s-2.013,4.496-4.497,4.496s-4.496-2.013-4.496-4.496S109.596,106.754,112.079,106.754z
		 M112.079,124.74c2.483,0,4.497,2.013,4.497,4.496s-2.013,4.497-4.497,4.497s-4.496-2.014-4.496-4.497
		S109.596,124.74,112.079,124.74z M112.079,142.727c2.483,0,4.497,2.013,4.497,4.496s-2.013,4.497-4.497,4.497
		s-4.496-2.014-4.496-4.497S109.596,142.727,112.079,142.727z M112.079,160.713c2.483,0,4.497,2.013,4.497,4.496
		s-2.013,4.496-4.497,4.496s-4.496-2.013-4.496-4.496S109.596,160.713,112.079,160.713z M130.065,52.796
		c2.483,0,4.497,2.014,4.497,4.496c0,2.483-2.013,4.497-4.497,4.497s-4.497-2.014-4.497-4.497
		C125.569,54.81,127.582,52.796,130.065,52.796z M130.065,160.713c2.483,0,4.497,2.013,4.497,4.496s-2.013,4.496-4.497,4.496
		s-4.497-2.013-4.497-4.496S127.582,160.713,130.065,160.713z M148.051,52.796c2.483,0,4.497,2.014,4.497,4.496
		c0,2.483-2.013,4.497-4.497,4.497s-4.497-2.014-4.497-4.497C143.555,54.81,145.568,52.796,148.051,52.796z M148.051,160.713
		c2.483,0,4.497,2.013,4.497,4.496s-2.013,4.496-4.497,4.496s-4.497-2.013-4.497-4.496S145.568,160.713,148.051,160.713z
		 M166.038,52.796c2.483,0,4.497,2.014,4.497,4.496c0,2.483-2.013,4.497-4.497,4.497s-4.497-2.014-4.497-4.497
		C161.541,54.81,163.554,52.796,166.038,52.796z M166.038,160.713c2.483,0,4.497,2.013,4.497,4.496s-2.013,4.496-4.497,4.496
		s-4.497-2.013-4.497-4.496S163.554,160.713,166.038,160.713z M184.023,70.782c2.483,0,4.497,2.013,4.497,4.496
		s-2.013,4.497-4.497,4.497s-4.497-2.014-4.497-4.497S181.54,70.782,184.023,70.782z M184.023,88.769
		c2.483,0,4.497,2.013,4.497,4.496s-2.013,4.496-4.497,4.496s-4.497-2.013-4.497-4.496S181.54,88.769,184.023,88.769z
		 M184.023,106.754c2.483,0,4.497,2.014,4.497,4.497s-2.013,4.496-4.497,4.496s-4.497-2.013-4.497-4.496
		S181.54,106.754,184.023,106.754z M184.023,124.74c2.483,0,4.497,2.013,4.497,4.496s-2.013,4.497-4.497,4.497
		s-4.497-2.014-4.497-4.497S181.54,124.74,184.023,124.74z M184.023,142.727c2.483,0,4.497,2.013,4.497,4.496
		s-2.013,4.497-4.497,4.497s-4.497-2.014-4.497-4.497S181.54,142.727,184.023,142.727z"/>
	<path d="M221.064,70.782c2.483,0,4.497,2.013,4.497,4.496s-2.013,4.497-4.497,4.497s-4.496-2.014-4.496-4.497
		S218.581,70.782,221.064,70.782z M221.064,88.769c2.483,0,4.497,2.013,4.497,4.496s-2.013,4.496-4.497,4.496
		s-4.496-2.013-4.496-4.496S218.581,88.769,221.064,88.769z M221.064,106.754c2.483,0,4.497,2.014,4.497,4.497
		s-2.013,4.496-4.497,4.496s-4.496-2.013-4.496-4.496S218.581,106.754,221.064,106.754z M221.064,124.74
		c2.483,0,4.497,2.013,4.497,4.496s-2.013,4.497-4.497,4.497s-4.496-2.014-4.496-4.497S218.581,124.74,221.064,124.74z
		 M221.064,142.727c2.483,0,4.497,2.013,4.497,4.496s-2.013,4.497-4.497,4.497s-4.496-2.014-4.496-4.497
		S218.581,142.727,221.064,142.727z M239.051,52.796c2.483,0,4.497,2.014,4.497,4.496c0,2.483-2.013,4.497-4.497,4.497
		s-4.497-2.014-4.497-4.497C234.554,54.81,236.567,52.796,239.051,52.796z M239.051,160.713c2.483,0,4.497,2.013,4.497,4.496
		s-2.013,4.496-4.497,4.496s-4.497-2.013-4.497-4.496S236.567,160.713,239.051,160.713z M257.037,52.796
		c2.483,0,4.497,2.014,4.497,4.496c0,2.483-2.013,4.497-4.497,4.497s-4.497-2.014-4.497-4.497
		C252.54,54.81,254.553,52.796,257.037,52.796z M257.037,160.713c2.483,0,4.497,2.013,4.497,4.496s-2.013,4.496-4.497,4.496
		s-4.497-2.013-4.497-4.496S254.553,160.713,257.037,160.713z M275.023,52.796c2.483,0,4.497,2.014,4.497,4.496
		c0,2.483-2.013,4.497-4.497,4.497s-4.497-2.014-4.497-4.497C270.526,54.81,272.54,52.796,275.023,52.796z M275.023,160.713
		c2.483,0,4.497,2.013,4.497,4.496s-2.013,4.496-4.497,4.496s-4.497-2.013-4.497-4.496S272.54,160.713,275.023,160.713z
		 M293.009,70.782c2.483,0,4.497,2.013,4.497,4.496s-2.013,4.497-4.497,4.497s-4.497-2.014-4.497-4.497
		S290.525,70.782,293.009,70.782z M293.009,88.769c2.483,0,4.497,2.013,4.497,4.496s-2.013,4.496-4.497,4.496
		s-4.497-2.013-4.497-4.496S290.525,88.769,293.009,88.769z M293.009,106.754c2.483,0,4.497,2.014,4.497,4.497
		s-2.013,4.496-4.497,4.496s-4.497-2.013-4.497-4.496S290.525,106.754,293.009,106.754z M293.009,124.74
		c2.483,0,4.497,2.013,4.497,4.496s-2.013,4.497-4.497,4.497s-4.497-2.014-4.497-4.497S290.525,124.74,293.009,124.74z
		 M293.009,142.727c2.483,0,4.497,2.013,4.497,4.496s-2.013,4.497-4.497,4.497s-4.497-2.014-4.497-4.497
		S290.525,142.727,293.009,142.727z"/>
	<path d="M330.05,52.796c2.483,0,4.497,2.014,4.497,4.496c0,2.483-2.013,4.497-4.497,4.497s-4.496-2.014-4.496-4.497
		C325.554,54.81,327.566,52.796,330.05,52.796z M330.05,70.782c2.483,0,4.497,2.013,4.497,4.496s-2.013,4.497-4.497,4.497
		s-4.496-2.014-4.496-4.497S327.566,70.782,330.05,70.782z M330.05,88.769c2.483,0,4.497,2.013,4.497,4.496
		s-2.013,4.496-4.497,4.496s-4.496-2.013-4.496-4.496S327.566,88.769,330.05,88.769z M330.05,106.754
		c2.483,0,4.497,2.014,4.497,4.497s-2.013,4.496-4.497,4.496s-4.496-2.013-4.496-4.496S327.566,106.754,330.05,106.754z
		 M330.05,124.74c2.483,0,4.497,2.013,4.497,4.496s-2.013,4.497-4.497,4.497s-4.496-2.014-4.496-4.497S327.566,124.74,330.05,124.74
		z M330.05,142.727c2.483,0,4.497,2.013,4.497,4.496s-2.013,4.497-4.497,4.497s-4.496-2.014-4.496-4.497
		S327.566,142.727,330.05,142.727z M330.05,160.713c2.483,0,4.497,2.013,4.497,4.496s-2.013,4.496-4.497,4.496
		s-4.496-2.013-4.496-4.496S327.566,160.713,330.05,160.713z M348.036,88.769c2.483,0,4.497,2.013,4.497,4.496
		s-2.013,4.496-4.497,4.496s-4.497-2.013-4.497-4.496S345.553,88.769,348.036,88.769z M366.022,106.754
		c2.483,0,4.497,2.014,4.497,4.497s-2.013,4.496-4.497,4.496s-4.497-2.013-4.497-4.496S363.539,106.754,366.022,106.754z
		 M384.008,124.74c2.483,0,4.497,2.013,4.497,4.496s-2.013,4.497-4.497,4.497s-4.497-2.014-4.497-4.497
		S381.525,124.74,384.008,124.74z M401.994,52.796c2.483,0,4.497,2.014,4.497,4.496c0,2.483-2.013,4.497-4.497,4.497
		s-4.497-2.014-4.497-4.497C397.498,54.81,399.511,52.796,401.994,52.796z M401.994,70.782c2.483,0,4.497,2.013,4.497,4.496
		s-2.013,4.497-4.497,4.497s-4.497-2.014-4.497-4.497S399.511,70.782,401.994,70.782z M401.994,88.769
		c2.483,0,4.497,2.013,4.497,4.496s-2.013,4.496-4.497,4.496s-4.497-2.013-4.497-4.496S399.511,88.769,401.994,88.769z
		 M401.994,106.754c2.483,0,4.497,2.014,4.497,4.497s-2.013,4.496-4.497,4.496s-4.497-2.013-4.497-4.496
		S399.511,106.754,401.994,106.754z M401.994,124.74c2.483,0,4.497,2.013,4.497,4.496s-2.013,4.497-4.497,4.497
		s-4.497-2.014-4.497-4.497S399.511,124.74,401.994,124.74z M401.994,142.727c2.483,0,4.497,2.013,4.497,4.496
		s-2.013,4.497-4.497,4.497s-4.497-2.014-4.497-4.497S399.511,142.727,401.994,142.727z M401.994,160.713
		c2.483,0,4.497,2.013,4.497,4.496s-2.013,4.496-4.497,4.496s-4.497-2.013-4.497-4.496S399.511,160.713,401.994,160.713z"/>
	<path d="M439.036,70.782c2.483,0,4.497,2.013,4.497,4.496s-2.013,4.497-4.497,4.497s-4.496-2.014-4.496-4.497
		S436.552,70.782,439.036,70.782z M439.036,88.769c2.483,0,4.497,2.013,4.497,4.496s-2.013,4.496-4.497,4.496
		s-4.496-2.013-4.496-4.496S436.552,88.769,439.036,88.769z M439.036,106.754c2.483,0,4.497,2.014,4.497,4.497
		s-2.013,4.496-4.497,4.496s-4.496-2.013-4.496-4.496S436.552,106.754,439.036,106.754z M439.036,124.74
		c2.483,0,4.497,2.013,4.497,4.496s-2.013,4.497-4.497,4.497s-4.496-2.014-4.496-4.497S436.552,124.74,439.036,124.74z
		 M439.036,142.727c2.483,0,4.497,2.013,4.497,4.496s-2.013,4.497-4.497,4.497s-4.496-2.014-4.496-4.497
		S436.552,142.727,439.036,142.727z M457.022,52.796c2.483,0,4.497,2.014,4.497,4.496c0,2.483-2.013,4.497-4.497,4.497
		s-4.497-2.014-4.497-4.497C452.525,54.81,454.539,52.796,457.022,52.796z M457.022,160.713c2.483,0,4.497,2.013,4.497,4.496
		s-2.013,4.496-4.497,4.496s-4.497-2.013-4.497-4.496S454.539,160.713,457.022,160.713z M475.008,52.796
		c2.483,0,4.497,2.014,4.497,4.496c0,2.483-2.013,4.497-4.497,4.497s-4.497-2.014-4.497-4.497
		C470.511,54.81,472.524,52.796,475.008,52.796z M475.008,160.713c2.483,0,4.497,2.013,4.497,4.496s-2.013,4.496-4.497,4.496
		s-4.497-2.013-4.497-4.496S472.524,160.713,475.008,160.713z M492.994,52.796c2.483,0,4.497,2.014,4.497,4.496
		c0,2.483-2.013,4.497-4.497,4.497s-4.497-2.014-4.497-4.497C488.498,54.81,490.511,52.796,492.994,52.796z M492.994,106.754
		c2.483,0,4.497,2.014,4.497,4.497s-2.013,4.496-4.497,4.496s-4.497-2.013-4.497-4.496S490.511,106.754,492.994,106.754z
		 M492.994,160.713c2.483,0,4.497,2.013,4.497,4.496s-2.013,4.496-4.497,4.496s-4.497-2.013-4.497-4.496
		S490.511,160.713,492.994,160.713z M510.98,70.782c2.483,0,4.497,2.013,4.497,4.496s-2.013,4.497-4.497,4.497
		s-4.497-2.014-4.497-4.497S508.497,70.782,510.98,70.782z M510.98,106.754c2.483,0,4.497,2.014,4.497,4.497
		s-2.013,4.496-4.497,4.496s-4.497-2.013-4.497-4.496S508.497,106.754,510.98,106.754z M510.98,124.74
		c2.483,0,4.497,2.013,4.497,4.496s-2.013,4.497-4.497,4.497s-4.497-2.014-4.497-4.497S508.497,124.74,510.98,124.74z
		 M510.98,142.727c2.483,0,4.497,2.013,4.497,4.496s-2.013,4.497-4.497,4.497s-4.497-2.014-4.497-4.497
		S508.497,142.727,510.98,142.727z"/>
	<path d="M548.021,52.796c2.483,0,4.497,2.014,4.497,4.496c0,2.483-2.013,4.497-4.497,4.497s-4.496-2.014-4.496-4.497
		C543.525,54.81,545.538,52.796,548.021,52.796z M548.021,70.782c2.483,0,4.497,2.013,4.497,4.496s-2.013,4.497-4.497,4.497
		s-4.496-2.014-4.496-4.497S545.538,70.782,548.021,70.782z M548.021,88.769c2.483,0,4.497,2.013,4.497,4.496
		s-2.013,4.496-4.497,4.496s-4.496-2.013-4.496-4.496S545.538,88.769,548.021,88.769z M548.021,106.754
		c2.483,0,4.497,2.014,4.497,4.497s-2.013,4.496-4.497,4.496s-4.496-2.013-4.496-4.496S545.538,106.754,548.021,106.754z
		 M548.021,124.74c2.483,0,4.497,2.013,4.497,4.496s-2.013,4.497-4.497,4.497s-4.496-2.014-4.496-4.497
		S545.538,124.74,548.021,124.74z M548.021,142.727c2.483,0,4.497,2.013,4.497,4.496s-2.013,4.497-4.497,4.497
		s-4.496-2.014-4.496-4.497S545.538,142.727,548.021,142.727z M548.021,160.713c2.483,0,4.497,2.013,4.497,4.496
		s-2.013,4.496-4.497,4.496s-4.496-2.013-4.496-4.496S545.538,160.713,548.021,160.713z M566.007,106.754
		c2.483,0,4.497,2.014,4.497,4.497s-2.014,4.496-4.497,4.496s-4.496-2.013-4.496-4.496S563.523,106.754,566.007,106.754z
		 M583.993,106.754c2.483,0,4.497,2.014,4.497,4.497s-2.014,4.496-4.497,4.496s-4.496-2.013-4.496-4.496
		S581.51,106.754,583.993,106.754z M601.979,106.754c2.483,0,4.496,2.014,4.496,4.497s-2.013,4.496-4.496,4.496
		s-4.497-2.013-4.497-4.496S599.496,106.754,601.979,106.754z M619.966,52.796c2.483,0,4.496,2.014,4.496,4.496
		c0,2.483-2.013,4.497-4.496,4.497s-4.497-2.014-4.497-4.497C615.469,54.81,617.482,52.796,619.966,52.796z M619.966,70.782
		c2.483,0,4.496,2.013,4.496,4.496s-2.013,4.497-4.496,4.497s-4.497-2.014-4.497-4.497S617.482,70.782,619.966,70.782z
		 M619.966,88.769c2.483,0,4.496,2.013,4.496,4.496s-2.013,4.496-4.496,4.496s-4.497-2.013-4.497-4.496
		S617.482,88.769,619.966,88.769z M619.966,106.754c2.483,0,4.496,2.014,4.496,4.497s-2.013,4.496-4.496,4.496
		s-4.497-2.013-4.497-4.496S617.482,106.754,619.966,106.754z M619.966,124.74c2.483,0,4.496,2.013,4.496,4.496
		s-2.013,4.497-4.496,4.497s-4.497-2.014-4.497-4.497S617.482,124.74,619.966,124.74z M619.966,142.727
		c2.483,0,4.496,2.013,4.496,4.496s-2.013,4.497-4.496,4.497s-4.497-2.014-4.497-4.497S617.482,142.727,619.966,142.727z
		 M619.966,160.713c2.483,0,4.496,2.013,4.496,4.496s-2.013,4.496-4.496,4.496s-4.497-2.013-4.497-4.496
		S617.482,160.713,619.966,160.713z"/>
	<path d="M657.007,52.796c2.483,0,4.497,2.014,4.497,4.496c0,2.483-2.014,4.497-4.497,4.497s-4.496-2.014-4.496-4.497
		C652.511,54.81,654.523,52.796,657.007,52.796z M657.007,70.782c2.483,0,4.497,2.013,4.497,4.496s-2.014,4.497-4.497,4.497
		s-4.496-2.014-4.496-4.497S654.523,70.782,657.007,70.782z M657.007,88.769c2.483,0,4.497,2.013,4.497,4.496
		s-2.014,4.496-4.497,4.496s-4.496-2.013-4.496-4.496S654.523,88.769,657.007,88.769z M657.007,106.754
		c2.483,0,4.497,2.014,4.497,4.497s-2.014,4.496-4.497,4.496s-4.496-2.013-4.496-4.496S654.523,106.754,657.007,106.754z
		 M657.007,124.74c2.483,0,4.497,2.013,4.497,4.496s-2.014,4.497-4.497,4.497s-4.496-2.014-4.496-4.497
		S654.523,124.74,657.007,124.74z M657.007,142.727c2.483,0,4.497,2.013,4.497,4.496s-2.014,4.497-4.497,4.497
		s-4.496-2.014-4.496-4.497S654.523,142.727,657.007,142.727z M674.993,160.713c2.483,0,4.496,2.013,4.496,4.496
		s-2.013,4.496-4.496,4.496s-4.497-2.013-4.497-4.496S672.51,160.713,674.993,160.713z M692.979,124.74
		c2.483,0,4.496,2.013,4.496,4.496s-2.013,4.497-4.496,4.497s-4.497-2.014-4.497-4.497S690.496,124.74,692.979,124.74z
		 M692.979,142.727c2.483,0,4.496,2.013,4.496,4.496s-2.013,4.497-4.496,4.497s-4.497-2.014-4.497-4.497
		S690.496,142.727,692.979,142.727z M710.965,160.713c2.483,0,4.497,2.013,4.497,4.496s-2.014,4.496-4.497,4.496
		s-4.496-2.013-4.496-4.496S708.481,160.713,710.965,160.713z M728.951,52.796c2.483,0,4.497,2.014,4.497,4.496
		c0,2.483-2.014,4.497-4.497,4.497s-4.496-2.014-4.496-4.497C724.455,54.81,726.468,52.796,728.951,52.796z M728.951,70.782
		c2.483,0,4.497,2.013,4.497,4.496s-2.014,4.497-4.497,4.497s-4.496-2.014-4.496-4.497S726.468,70.782,728.951,70.782z
		 M728.951,88.769c2.483,0,4.497,2.013,4.497,4.496s-2.014,4.496-4.497,4.496s-4.496-2.013-4.496-4.496
		S726.468,88.769,728.951,88.769z M728.951,106.754c2.483,0,4.497,2.014,4.497,4.497s-2.014,4.496-4.497,4.496
		s-4.496-2.013-4.496-4.496S726.468,106.754,728.951,106.754z M728.951,124.74c2.483,0,4.497,2.013,4.497,4.496
		s-2.014,4.497-4.497,4.497s-4.496-2.014-4.496-4.497S726.468,124.74,728.951,124.74z M728.951,142.727
		c2.483,0,4.497,2.013,4.497,4.496s-2.014,4.497-4.497,4.497s-4.496-2.014-4.496-4.497S726.468,142.727,728.951,142.727z"/>
	<path d="M765.992,88.769c2.483,0,4.497,2.013,4.497,4.496s-2.014,4.496-4.497,4.496s-4.496-2.013-4.496-4.496
		S763.509,88.769,765.992,88.769z M765.992,106.754c2.483,0,4.497,2.014,4.497,4.497s-2.014,4.496-4.497,4.496
		s-4.496-2.013-4.496-4.496S763.509,106.754,765.992,106.754z M765.992,124.74c2.483,0,4.497,2.013,4.497,4.496
		s-2.014,4.497-4.497,4.497s-4.496-2.014-4.496-4.497S763.509,124.74,765.992,124.74z M765.992,142.727
		c2.483,0,4.497,2.013,4.497,4.496s-2.014,4.497-4.497,4.497s-4.496-2.014-4.496-4.497S763.509,142.727,765.992,142.727z
		 M765.992,160.713c2.483,0,4.497,2.013,4.497,4.496s-2.014,4.496-4.497,4.496s-4.496-2.013-4.496-4.496
		S763.509,160.713,765.992,160.713z M783.979,70.782c2.483,0,4.496,2.013,4.496,4.496s-2.013,4.497-4.496,4.497
		s-4.497-2.014-4.497-4.497S781.495,70.782,783.979,70.782z M783.979,106.754c2.483,0,4.496,2.014,4.496,4.497
		s-2.013,4.496-4.496,4.496s-4.497-2.013-4.497-4.496S781.495,106.754,783.979,106.754z M801.965,52.796
		c2.483,0,4.496,2.014,4.496,4.496c0,2.483-2.013,4.497-4.496,4.497s-4.497-2.014-4.497-4.497
		C797.468,54.81,799.481,52.796,801.965,52.796z M801.965,106.754c2.483,0,4.496,2.014,4.496,4.497s-2.013,4.496-4.496,4.496
		s-4.497-2.013-4.497-4.496S799.481,106.754,801.965,106.754z M819.95,70.782c2.483,0,4.497,2.013,4.497,4.496
		s-2.014,4.497-4.497,4.497s-4.496-2.014-4.496-4.497S817.467,70.782,819.95,70.782z M819.95,106.754
		c2.483,0,4.497,2.014,4.497,4.497s-2.014,4.496-4.497,4.496s-4.496-2.013-4.496-4.496S817.467,106.754,819.95,106.754z
		 M837.937,88.769c2.483,0,4.497,2.013,4.497,4.496s-2.014,4.496-4.497,4.496s-4.496-2.013-4.496-4.496
		S835.453,88.769,837.937,88.769z M837.937,106.754c2.483,0,4.497,2.014,4.497,4.497s-2.014,4.496-4.497,4.496
		s-4.496-2.013-4.496-4.496S835.453,106.754,837.937,106.754z M837.937,124.74c2.483,0,4.497,2.013,4.497,4.496
		s-2.014,4.497-4.497,4.497s-4.496-2.014-4.496-4.497S835.453,124.74,837.937,124.74z M837.937,142.727
		c2.483,0,4.497,2.013,4.497,4.496s-2.014,4.497-4.497,4.497s-4.496-2.014-4.496-4.497S835.453,142.727,837.937,142.727z
		 M837.937,160.713c2.483,0,4.497,2.013,4.497,4.496s-2.014,4.496-4.497,4.496s-4.496-2.013-4.496-4.496
		S835.453,160.713,837.937,160.713z"/>
	<path d="M874.978,70.782c2.483,0,4.497,2.013,4.497,4.496s-2.014,4.497-4.497,4.497s-4.496-2.014-4.496-4.497
		S872.494,70.782,874.978,70.782z M874.978,88.769c2.483,0,4.497,2.013,4.497,4.496s-2.014,4.496-4.497,4.496
		s-4.496-2.013-4.496-4.496S872.494,88.769,874.978,88.769z M874.978,142.727c2.483,0,4.497,2.013,4.497,4.496
		s-2.014,4.497-4.497,4.497s-4.496-2.014-4.496-4.497S872.494,142.727,874.978,142.727z M892.964,52.796
		c2.483,0,4.496,2.014,4.496,4.496c0,2.483-2.013,4.497-4.496,4.497s-4.497-2.014-4.497-4.497
		C888.467,54.81,890.48,52.796,892.964,52.796z M892.964,106.754c2.483,0,4.496,2.014,4.496,4.497s-2.013,4.496-4.496,4.496
		s-4.497-2.013-4.497-4.496S890.48,106.754,892.964,106.754z M892.964,160.713c2.483,0,4.496,2.013,4.496,4.496
		s-2.013,4.496-4.496,4.496s-4.497-2.013-4.497-4.496S890.48,160.713,892.964,160.713z M910.95,52.796
		c2.483,0,4.496,2.014,4.496,4.496c0,2.483-2.013,4.497-4.496,4.497s-4.497-2.014-4.497-4.497
		C906.453,54.81,908.467,52.796,910.95,52.796z M910.95,106.754c2.483,0,4.496,2.014,4.496,4.497s-2.013,4.496-4.496,4.496
		s-4.497-2.013-4.497-4.496S908.467,106.754,910.95,106.754z M910.95,160.713c2.483,0,4.496,2.013,4.496,4.496
		s-2.013,4.496-4.496,4.496s-4.497-2.013-4.497-4.496S908.467,160.713,910.95,160.713z M928.936,52.796
		c2.483,0,4.497,2.014,4.497,4.496c0,2.483-2.014,4.497-4.497,4.497s-4.496-2.014-4.496-4.497
		C924.439,54.81,926.452,52.796,928.936,52.796z M928.936,106.754c2.483,0,4.497,2.014,4.497,4.497s-2.014,4.496-4.497,4.496
		s-4.496-2.013-4.496-4.496S926.452,106.754,928.936,106.754z M928.936,160.713c2.483,0,4.497,2.013,4.497,4.496
		s-2.014,4.496-4.497,4.496s-4.496-2.013-4.496-4.496S926.452,160.713,928.936,160.713z M946.922,70.782
		c2.483,0,4.497,2.013,4.497,4.496s-2.014,4.497-4.497,4.497s-4.496-2.014-4.496-4.497S944.438,70.782,946.922,70.782z
		 M946.922,124.74c2.483,0,4.497,2.013,4.497,4.496s-2.014,4.497-4.497,4.497s-4.496-2.014-4.496-4.497
		S944.438,124.74,946.922,124.74z M946.922,142.727c2.483,0,4.497,2.013,4.497,4.496s-2.014,4.497-4.497,4.497
		s-4.496-2.014-4.496-4.497S944.438,142.727,946.922,142.727z"/>
	<path d="M983.963,52.796c2.483,0,4.497,2.014,4.497,4.496c0,2.483-2.014,4.497-4.497,4.497s-4.496-2.014-4.496-4.497
		C979.467,54.81,981.479,52.796,983.963,52.796z M983.963,70.782c2.483,0,4.497,2.013,4.497,4.496s-2.014,4.497-4.497,4.497
		s-4.496-2.014-4.496-4.497S981.479,70.782,983.963,70.782z M1001.949,88.769c2.483,0,4.496,2.013,4.496,4.496
		s-2.013,4.496-4.496,4.496s-4.497-2.013-4.497-4.496S999.466,88.769,1001.949,88.769z M1019.936,106.754
		c2.483,0,4.496,2.014,4.496,4.497s-2.013,4.496-4.496,4.496s-4.497-2.013-4.497-4.496S1017.452,106.754,1019.936,106.754z
		 M1019.936,124.74c2.483,0,4.496,2.013,4.496,4.496s-2.013,4.497-4.496,4.497s-4.497-2.014-4.497-4.497
		S1017.452,124.74,1019.936,124.74z M1019.936,142.727c2.483,0,4.496,2.013,4.496,4.496s-2.013,4.497-4.496,4.497
		s-4.497-2.014-4.497-4.497S1017.452,142.727,1019.936,142.727z M1019.936,160.713c2.483,0,4.496,2.013,4.496,4.496
		s-2.013,4.496-4.496,4.496s-4.497-2.013-4.497-4.496S1017.452,160.713,1019.936,160.713z M1037.921,88.769
		c2.483,0,4.497,2.013,4.497,4.496s-2.014,4.496-4.497,4.496s-4.496-2.013-4.496-4.496S1035.438,88.769,1037.921,88.769z
		 M1055.907,52.796c2.483,0,4.497,2.014,4.497,4.496c0,2.483-2.014,4.497-4.497,4.497s-4.496-2.014-4.496-4.497
		C1051.411,54.81,1053.424,52.796,1055.907,52.796z M1055.907,70.782c2.483,0,4.497,2.013,4.497,4.496s-2.014,4.497-4.497,4.497
		s-4.496-2.014-4.496-4.497S1053.424,70.782,1055.907,70.782z"/>
	<path d="M1092.948,70.782c2.483,0,4.497,2.013,4.497,4.496s-2.014,4.497-4.497,4.497s-4.496-2.014-4.496-4.497
		S1090.465,70.782,1092.948,70.782z M1092.948,88.769c2.483,0,4.497,2.013,4.497,4.496s-2.014,4.496-4.497,4.496
		s-4.496-2.013-4.496-4.496S1090.465,88.769,1092.948,88.769z M1092.948,142.727c2.483,0,4.497,2.013,4.497,4.496
		s-2.014,4.497-4.497,4.497s-4.496-2.014-4.496-4.497S1090.465,142.727,1092.948,142.727z M1110.935,52.796
		c2.483,0,4.496,2.014,4.496,4.496c0,2.483-2.013,4.497-4.496,4.497s-4.497-2.014-4.497-4.497
		C1106.438,54.81,1108.451,52.796,1110.935,52.796z M1110.935,106.754c2.483,0,4.496,2.014,4.496,4.497s-2.013,4.496-4.496,4.496
		s-4.497-2.013-4.497-4.496S1108.451,106.754,1110.935,106.754z M1110.935,160.713c2.483,0,4.496,2.013,4.496,4.496
		s-2.013,4.496-4.496,4.496s-4.497-2.013-4.497-4.496S1108.451,160.713,1110.935,160.713z M1128.921,52.796
		c2.483,0,4.496,2.014,4.496,4.496c0,2.483-2.013,4.497-4.496,4.497s-4.497-2.014-4.497-4.497
		C1124.424,54.81,1126.438,52.796,1128.921,52.796z M1128.921,106.754c2.483,0,4.496,2.014,4.496,4.497s-2.013,4.496-4.496,4.496
		s-4.497-2.013-4.497-4.496S1126.438,106.754,1128.921,106.754z M1128.921,160.713c2.483,0,4.496,2.013,4.496,4.496
		s-2.013,4.496-4.496,4.496s-4.497-2.013-4.497-4.496S1126.438,160.713,1128.921,160.713z M1146.906,52.796
		c2.483,0,4.497,2.014,4.497,4.496c0,2.483-2.014,4.497-4.497,4.497s-4.496-2.014-4.496-4.497
		C1142.41,54.81,1144.423,52.796,1146.906,52.796z M1146.906,106.754c2.483,0,4.497,2.014,4.497,4.497s-2.014,4.496-4.497,4.496
		s-4.496-2.013-4.496-4.496S1144.423,106.754,1146.906,106.754z M1146.906,160.713c2.483,0,4.497,2.013,4.497,4.496
		s-2.014,4.496-4.497,4.496s-4.496-2.013-4.496-4.496S1144.423,160.713,1146.906,160.713z M1164.893,70.782
		c2.483,0,4.497,2.013,4.497,4.496s-2.014,4.497-4.497,4.497s-4.496-2.014-4.496-4.497S1162.409,70.782,1164.893,70.782z
		 M1164.893,124.74c2.483,0,4.497,2.013,4.497,4.496s-2.014,4.497-4.497,4.497s-4.496-2.014-4.496-4.497
		S1162.409,124.74,1164.893,124.74z M1164.893,142.727c2.483,0,4.497,2.013,4.497,4.496s-2.014,4.497-4.497,4.497
		s-4.496-2.014-4.496-4.497S1162.409,142.727,1164.893,142.727z"/>
	<path d="M1201.934,52.796c2.483,0,4.497,2.014,4.497,4.496c0,2.483-2.014,4.497-4.497,4.497s-4.496-2.014-4.496-4.497
		C1197.438,54.81,1199.45,52.796,1201.934,52.796z M1219.92,52.796c2.483,0,4.496,2.014,4.496,4.496
		c0,2.483-2.013,4.497-4.496,4.497s-4.497-2.014-4.497-4.497C1215.423,54.81,1217.437,52.796,1219.92,52.796z M1237.906,52.796
		c2.483,0,4.496,2.014,4.496,4.496c0,2.483-2.013,4.497-4.496,4.497s-4.497-2.014-4.497-4.497
		C1233.409,54.81,1235.423,52.796,1237.906,52.796z M1237.906,70.782c2.483,0,4.496,2.013,4.496,4.496s-2.013,4.497-4.496,4.497
		s-4.497-2.014-4.497-4.497S1235.423,70.782,1237.906,70.782z M1237.906,88.769c2.483,0,4.496,2.013,4.496,4.496
		s-2.013,4.496-4.496,4.496s-4.497-2.013-4.497-4.496S1235.423,88.769,1237.906,88.769z M1237.906,106.754
		c2.483,0,4.496,2.014,4.496,4.497s-2.013,4.496-4.496,4.496s-4.497-2.013-4.497-4.496S1235.423,106.754,1237.906,106.754z
		 M1237.906,124.74c2.483,0,4.496,2.013,4.496,4.496s-2.013,4.497-4.496,4.497s-4.497-2.014-4.497-4.497
		S1235.423,124.74,1237.906,124.74z M1237.906,142.727c2.483,0,4.496,2.013,4.496,4.496s-2.013,4.497-4.496,4.497
		s-4.497-2.014-4.497-4.497S1235.423,142.727,1237.906,142.727z M1237.906,160.713c2.483,0,4.496,2.013,4.496,4.496
		s-2.013,4.496-4.496,4.496s-4.497-2.013-4.497-4.496S1235.423,160.713,1237.906,160.713z M1255.892,52.796
		c2.483,0,4.497,2.014,4.497,4.496c0,2.483-2.014,4.497-4.497,4.497s-4.496-2.014-4.496-4.497
		C1251.396,54.81,1253.408,52.796,1255.892,52.796z M1273.878,52.796c2.483,0,4.497,2.014,4.497,4.496
		c0,2.483-2.014,4.497-4.497,4.497s-4.496-2.014-4.496-4.497C1269.382,54.81,1271.395,52.796,1273.878,52.796z"/>
	<path d="M1310.919,52.796c2.483,0,4.497,2.014,4.497,4.496c0,2.483-2.014,4.497-4.497,4.497s-4.496-2.014-4.496-4.497
		C1306.423,54.81,1308.436,52.796,1310.919,52.796z M1310.919,70.782c2.483,0,4.497,2.013,4.497,4.496s-2.014,4.497-4.497,4.497
		s-4.496-2.014-4.496-4.497S1308.436,70.782,1310.919,70.782z M1310.919,88.769c2.483,0,4.497,2.013,4.497,4.496
		s-2.014,4.496-4.497,4.496s-4.496-2.013-4.496-4.496S1308.436,88.769,1310.919,88.769z M1310.919,106.754
		c2.483,0,4.497,2.014,4.497,4.497s-2.014,4.496-4.497,4.496s-4.496-2.013-4.496-4.496S1308.436,106.754,1310.919,106.754z
		 M1310.919,124.74c2.483,0,4.497,2.013,4.497,4.496s-2.014,4.497-4.497,4.497s-4.496-2.014-4.496-4.497
		S1308.436,124.74,1310.919,124.74z M1310.919,142.727c2.483,0,4.497,2.013,4.497,4.496s-2.014,4.497-4.497,4.497
		s-4.496-2.014-4.496-4.497S1308.436,142.727,1310.919,142.727z M1310.919,160.713c2.483,0,4.497,2.013,4.497,4.496
		s-2.014,4.496-4.497,4.496s-4.496-2.013-4.496-4.496S1308.436,160.713,1310.919,160.713z M1328.905,52.796
		c2.483,0,4.496,2.014,4.496,4.496c0,2.483-2.013,4.497-4.496,4.497s-4.497-2.014-4.497-4.497
		C1324.408,54.81,1326.422,52.796,1328.905,52.796z M1328.905,106.754c2.483,0,4.496,2.014,4.496,4.497s-2.013,4.496-4.496,4.496
		s-4.497-2.013-4.497-4.496S1326.422,106.754,1328.905,106.754z M1328.905,160.713c2.483,0,4.496,2.013,4.496,4.496
		s-2.013,4.496-4.496,4.496s-4.497-2.013-4.497-4.496S1326.422,160.713,1328.905,160.713z M1346.892,52.796
		c2.483,0,4.496,2.014,4.496,4.496c0,2.483-2.013,4.497-4.496,4.497s-4.497-2.014-4.497-4.497
		C1342.395,54.81,1344.408,52.796,1346.892,52.796z M1346.892,106.754c2.483,0,4.496,2.014,4.496,4.497s-2.013,4.496-4.496,4.496
		s-4.497-2.013-4.497-4.496S1344.408,106.754,1346.892,106.754z M1346.892,160.713c2.483,0,4.496,2.013,4.496,4.496
		s-2.013,4.496-4.496,4.496s-4.497-2.013-4.497-4.496S1344.408,160.713,1346.892,160.713z M1364.877,52.796
		c2.483,0,4.497,2.014,4.497,4.496c0,2.483-2.014,4.497-4.497,4.497s-4.496-2.014-4.496-4.497
		C1360.381,54.81,1362.394,52.796,1364.877,52.796z M1364.877,106.754c2.483,0,4.497,2.014,4.497,4.497s-2.014,4.496-4.497,4.496
		s-4.496-2.013-4.496-4.496S1362.394,106.754,1364.877,106.754z M1364.877,160.713c2.483,0,4.497,2.013,4.497,4.496
		s-2.014,4.496-4.497,4.496s-4.496-2.013-4.496-4.496S1362.394,160.713,1364.877,160.713z M1382.863,52.796
		c2.483,0,4.497,2.014,4.497,4.496c0,2.483-2.014,4.497-4.497,4.497s-4.496-2.014-4.496-4.497
		C1378.367,54.81,1380.38,52.796,1382.863,52.796z M1382.863,160.713c2.483,0,4.497,2.013,4.497,4.496s-2.014,4.496-4.497,4.496
		s-4.496-2.013-4.496-4.496S1380.38,160.713,1382.863,160.713z"/>
	<path d="M1419.904,52.796c2.483,0,4.497,2.014,4.497,4.496c0,2.483-2.014,4.497-4.497,4.497s-4.496-2.014-4.496-4.497
		C1415.408,54.81,1417.421,52.796,1419.904,52.796z M1419.904,70.782c2.483,0,4.497,2.013,4.497,4.496s-2.014,4.497-4.497,4.497
		s-4.496-2.014-4.496-4.497S1417.421,70.782,1419.904,70.782z M1419.904,88.769c2.483,0,4.497,2.013,4.497,4.496
		s-2.014,4.496-4.497,4.496s-4.496-2.013-4.496-4.496S1417.421,88.769,1419.904,88.769z M1419.904,106.754
		c2.483,0,4.497,2.014,4.497,4.497s-2.014,4.496-4.497,4.496s-4.496-2.013-4.496-4.496S1417.421,106.754,1419.904,106.754z
		 M1419.904,124.74c2.483,0,4.497,2.013,4.497,4.496s-2.014,4.497-4.497,4.497s-4.496-2.014-4.496-4.497
		S1417.421,124.74,1419.904,124.74z M1419.904,142.727c2.483,0,4.497,2.013,4.497,4.496s-2.014,4.497-4.497,4.497
		s-4.496-2.014-4.496-4.497S1417.421,142.727,1419.904,142.727z M1419.904,160.713c2.483,0,4.497,2.013,4.497,4.496
		s-2.014,4.496-4.497,4.496s-4.496-2.013-4.496-4.496S1417.421,160.713,1419.904,160.713z M1437.891,70.782
		c2.483,0,4.496,2.013,4.496,4.496s-2.013,4.497-4.496,4.497s-4.497-2.014-4.497-4.497S1435.407,70.782,1437.891,70.782z
		 M1455.877,88.769c2.483,0,4.496,2.013,4.496,4.496s-2.013,4.496-4.496,4.496s-4.497-2.013-4.497-4.496
		S1453.394,88.769,1455.877,88.769z M1455.877,106.754c2.483,0,4.496,2.014,4.496,4.497s-2.013,4.496-4.496,4.496
		s-4.497-2.013-4.497-4.496S1453.394,106.754,1455.877,106.754z M1473.862,70.782c2.483,0,4.497,2.013,4.497,4.496
		s-2.014,4.497-4.497,4.497s-4.496-2.014-4.496-4.497S1471.379,70.782,1473.862,70.782z M1491.849,52.796
		c2.483,0,4.497,2.014,4.497,4.496c0,2.483-2.014,4.497-4.497,4.497s-4.496-2.014-4.496-4.497
		C1487.353,54.81,1489.365,52.796,1491.849,52.796z M1491.849,70.782c2.483,0,4.497,2.013,4.497,4.496s-2.014,4.497-4.497,4.497
		s-4.496-2.014-4.496-4.497S1489.365,70.782,1491.849,70.782z M1491.849,88.769c2.483,0,4.497,2.013,4.497,4.496
		s-2.014,4.496-4.497,4.496s-4.496-2.013-4.496-4.496S1489.365,88.769,1491.849,88.769z M1491.849,106.754
		c2.483,0,4.497,2.014,4.497,4.497s-2.014,4.496-4.497,4.496s-4.496-2.013-4.496-4.496S1489.365,106.754,1491.849,106.754z
		 M1491.849,124.74c2.483,0,4.497,2.013,4.497,4.496s-2.014,4.497-4.497,4.497s-4.496-2.014-4.496-4.497
		S1489.365,124.74,1491.849,124.74z M1491.849,142.727c2.483,0,4.497,2.013,4.497,4.496s-2.014,4.497-4.497,4.497
		s-4.496-2.014-4.496-4.497S1489.365,142.727,1491.849,142.727z M1491.849,160.713c2.483,0,4.497,2.013,4.497,4.496
		s-2.014,4.496-4.497,4.496s-4.496-2.013-4.496-4.496S1489.365,160.713,1491.849,160.713z"/>
</g>
</svg>
