<?xml version="1.0" encoding="utf-8"?>
<!-- Generator: Adobe Illustrator 16.0.0, SVG Export Plug-In . SVG Version: 6.00 Build 0)  -->
<!DOCTYPE svg PUBLIC "-//W3C//DTD SVG 1.1//EN" "http://www.w3.org/Graphics/SVG/1.1/DTD/svg11.dtd">
<svg version="1.1" id="Layer_1" xmlns="http://www.w3.org/2000/svg" xmlns:xlink="http://www.w3.org/1999/xlink" x="0px" y="0px"
	 width="280px" height="71px" viewBox="0 0 280 71" enable-background="new 0 0 280 71" xml:space="preserve">
<g>
	<g>
		<g>
			<path fill="#404041" d="M113.541,38.945H75.515v-4.526h16.242v-3.218H78.102V17.469h32.946v4.479H83.659v4.78h27.804v4.473
				H97.354v3.218h16.188V38.945z M106.898,43.252c3.071,1.154,4.618,3.002,4.618,5.558c0,2.54-1.547,4.403-4.618,5.558
				c-3.087,1.154-7.189,1.739-12.347,1.739c-5.15,0-9.276-0.585-12.339-1.739c-3.079-1.154-4.618-3.018-4.618-5.558
				c0-2.556,1.523-4.403,4.587-5.558s7.19-1.74,12.37-1.74C99.709,41.512,103.812,42.098,106.898,43.252z M102.487,51.026
				c2.04-0.462,3.064-1.216,3.064-2.217s-1.024-1.739-3.064-2.202c-2.047-0.477-4.68-0.723-7.936-0.723s-5.904,0.246-7.967,0.723
				c-2.055,0.463-3.086,1.201-3.086,2.202s1.032,1.755,3.086,2.217c2.063,0.462,4.711,0.692,7.967,0.692
				S100.44,51.488,102.487,51.026z"/>
		</g>
		<g>
			<path fill="#404041" d="M116.436,26.121v-4.934h9.915v-4.372h5.758v4.372h9.96v4.934H116.436z M143.146,46.992v5.143
				c-1.17,0.492-2.771,0.878-4.788,1.154c-2.024,0.262-4.249,0.4-6.666,0.4H116.59v-5.08h9.807v-4.772
				c-2.556-0.385-4.572-1.231-6.035-2.571c-1.478-1.34-2.209-3.075-2.209-5.185c0-2.517,1.008-4.487,3.033-5.911
				c2.024-1.424,4.734-2.14,8.121-2.14s6.096,0.716,8.121,2.14c2.017,1.424,3.033,3.395,3.033,5.911
				c0,2.109-0.762,3.845-2.255,5.216c-1.509,1.354-3.556,2.201-6.158,2.54v4.772C137.096,48.609,140.799,48.07,143.146,46.992z
				 M124.973,38.575c1.023,0.628,2.455,0.936,4.333,0.936c1.863,0,3.31-0.308,4.326-0.936c1.024-0.623,1.532-1.454,1.532-2.494
				c0-1.039-0.516-1.87-1.563-2.517c-1.032-0.631-2.463-0.947-4.295-0.947s-3.271,0.316-4.311,0.947
				c-1.031,0.646-1.555,1.478-1.555,2.517C123.44,37.121,123.948,37.952,124.973,38.575z M151.506,37.39v18.409h-5.604V17.168h5.604
				v14.695h4.873v5.526H151.506z"/>
		</g>
		<g>
			<path fill="#404041" d="M173.706,33.918l11.878,16.4l-4.565,3.325l-9.229-13.086c-1.493,4.095-3.387,7.282-5.681,9.545
				c-2.31,2.263-4.919,3.448-7.859,3.587v-5.834c2.286-0.34,4.257-1.832,5.935-4.512c1.679-2.663,2.972-6.185,3.896-10.572
				c0.916-4.403,1.394-9.314,1.432-14.749l5.704,0.2C175.215,23.758,174.707,28.984,173.706,33.918z M193.574,55.799h-5.604V17.168
				h5.604V55.799z"/>
		</g>
		<g>
			<path fill="#404041" d="M236.78,48.81v5.327h-38.019V48.81H236.78z M209.369,38.676c-3.133,1.928-6.404,2.913-9.822,2.944v-5.438
				c2.587,0,5.088-0.832,7.49-2.518c2.401-1.67,4.449-3.956,6.15-6.835c1.686-2.887,2.802-6.097,3.363-9.614l5.758,0.954
				c-0.562,3.056-1.37,5.742-2.439,8.06l16.441,10.953l-3.002,4.592l-15.934-11.026C215.166,34.103,212.502,36.751,209.369,38.676z"
				/>
		</g>
		<g>
			<path fill="#404041" d="M255.094,38.599c-1.802,0.23-3.719,0.347-5.758,0.347h-8.46V17.923h16.342v4.418h-11.101v3.926h10.169
				V30.5h-10.169v4.026h3.58c4.219,0,7.467-0.462,9.753-1.362v4.426C258.334,38.029,256.895,38.367,255.094,38.599z M276.777,41.912
				v13.594h-33.77V41.912H276.777z M271.281,51.026v-4.572h-22.785v4.572H271.281z M258.311,29.538v-5.026h3.888v-7.144h5.234
				v22.327h-5.234V29.538H258.311z M276.777,40.111h-5.296V17.168h5.296V40.111z"/>
		</g>
	</g>
	<g>
		<path fill="#04529E" d="M68.063,36.143c0,17.316-14.056,31.372-31.375,31.372c-17.328,0-31.376-14.056-31.376-31.372
			c0-17.32,14.048-31.375,31.376-31.375C54.008,4.768,68.063,18.823,68.063,36.143z"/>
	</g>
	<g>
		<g>
			<path fill="#FFFFFF" d="M28.775,24.173c2.009,1.132,3.58,2.726,4.688,4.78c1.108,2.056,1.663,4.457,1.663,7.182
				c0,2.741-0.554,5.146-1.663,7.193c-1.108,2.063-2.679,3.649-4.688,4.789c-2.017,1.139-4.326,1.693-6.928,1.693h-6.667V22.472
				h6.667C24.449,22.472,26.758,23.034,28.775,24.173z M27.328,42.328c1.432-1.524,2.155-3.576,2.155-6.193
				c0-2.602-0.724-4.657-2.155-6.181c-1.432-1.524-3.356-2.286-5.773-2.286h-0.801v16.954h0.801
				C23.972,44.622,25.896,43.852,27.328,42.328z"/>
		</g>
		<g>
			<path fill="#FFFFFF" d="M60.305,49.811h-5.573V38.606H43.809v11.204h-5.565V22.472h5.565v10.785h10.923V22.472h5.573V49.811z"/>
		</g>
	</g>
</g>
</svg>
