<?xml version="1.0" encoding="utf-8"?>
<!-- Generator: Adobe Illustrator 16.0.0, SVG Export Plug-In . SVG Version: 6.00 Build 0)  -->
<!DOCTYPE svg PUBLIC "-//W3C//DTD SVG 1.1//EN" "http://www.w3.org/Graphics/SVG/1.1/DTD/svg11.dtd">
<svg version="1.1" id="Layer_1" xmlns="http://www.w3.org/2000/svg" xmlns:xlink="http://www.w3.org/1999/xlink" x="0px" y="0px"
	 width="200px" height="90px" viewBox="0 0 200 90" enable-background="new 0 0 200 90" xml:space="preserve">
<g id="Ebene_1">
	<g>
		<path fill="#404041" d="M13.763,33.665h4.494l-3.796,17.973h10.551l-0.729,3.455H9.237l4.525-21.438V33.665z"/>
	</g>
	<g>
		<path fill="#404041" d="M33.28,33.665h15.382l-0.731,3.499H37.043l-1.164,5.497h9.654l-0.729,3.458h-9.652l-1.164,5.53h10.889
			l-0.729,3.455H28.763l4.527-21.439H33.28z"/>
	</g>
	<g>
		<path fill="#404041" d="M55.723,33.665h4.495l-4.526,21.439h-4.492L55.723,33.665z"/>
	</g>
	<g>
		<path fill="#404041" d="M68.01,33.665h10.855c1.713,0,3.024,0.392,3.945,1.162c0.92,0.783,1.383,1.839,1.383,3.194
			c0,0.401-0.052,0.875-0.168,1.427c-0.487,2.198-1.628,3.752-3.424,4.663C82.196,44.639,83,45.749,83,47.44
			c0,0.381-0.053,0.846-0.168,1.396c-0.466,2.084-1.354,3.648-2.664,4.694c-1.313,1.045-3.12,1.563-5.425,1.563H63.494l4.525-21.438
			L68.01,33.665z M74.364,51.807c1.15,0,2.039-0.244,2.661-0.719c0.627-0.475,1.06-1.29,1.302-2.441
			c0.063-0.329,0.095-0.636,0.095-0.899c0-0.665-0.243-1.153-0.729-1.469c-0.486-0.308-1.28-0.465-2.368-0.465h-5.393l-1.269,5.994
			h5.688H74.364z M76.16,42.557c1.047,0,1.852-0.233,2.434-0.699c0.58-0.463,0.96-1.14,1.161-2.029
			c0.064-0.329,0.096-0.644,0.096-0.932c0-0.642-0.223-1.12-0.665-1.425c-0.446-0.307-1.174-0.466-2.198-0.466h-5.193l-1.162,5.56
			h5.528V42.557z"/>
	</g>
	<g>
		<path fill="#404041" d="M104.6,33.665h3.89l7.126,14.282l3.035-14.282h4.493l-4.527,21.439h-3.89l-7.123-14.283l-3.039,14.283
			h-4.49L104.6,33.665z"/>
	</g>
	<g>
		<path fill="#404041" d="M128.354,53.413c-1.565-1.354-2.347-3.268-2.347-5.729c0-0.973,0.107-1.955,0.328-2.929
			c0.748-3.595,2.304-6.395,4.642-8.404c2.334-2.01,5.349-3.015,9.044-3.015c2.438,0,4.518,0.297,6.254,0.9l-0.831,3.858
			c-1.623-0.624-3.599-0.931-5.936-0.931c-2.338,0-4.303,0.624-5.708,1.883c-1.405,1.257-2.377,3.161-2.917,5.708
			c-0.225,0.952-0.329,1.851-0.329,2.697c0,1.417,0.412,2.472,1.248,3.161c0.831,0.686,2.196,1.036,4.111,1.036
			c1.472,0,2.206-0.224,3.584-0.666l1.332-6.703h4.537l-1.966,9.334c-0.955,0.528-2.136,0.973-3.544,1.312
			c-1.405,0.349-3.021,0.518-4.839,0.518c-2.891,0-5.111-0.677-6.674-2.03H128.354z"/>
	</g>
	<g>
		<path fill="#404041" d="M153.442,33.665h15.385l-0.73,3.499h-10.889l-1.164,5.497h9.651l-0.728,3.458h-9.654l-1.16,5.53h10.889
			l-0.729,3.455h-15.385l4.523-21.439H153.442z"/>
	</g>
	<g>
		<path fill="#404041" d="M174.619,33.665h10.285c1.885,0,3.333,0.464,4.349,1.385c1.013,0.921,1.51,2.19,1.51,3.818
			c0,0.686-0.074,1.352-0.235,1.997c-0.302,1.469-0.938,2.728-1.891,3.794c-0.949,1.07-2.167,1.799-3.625,2.199
			c0.265,0.285,0.476,0.603,0.634,0.93c0.16,0.33,0.288,0.782,0.402,1.333l1.338,5.994h-4.668l-1.332-5.762
			c-0.137-0.506-0.308-0.856-0.529-1.046s-0.634-0.285-1.237-0.285h-3.531l-1.499,7.093h-4.494l4.524-21.44V33.665z M181.514,44.289
			c1.244,0,2.227-0.273,2.981-0.813c0.737-0.538,1.237-1.417,1.479-2.611c0.107-0.444,0.168-0.91,0.168-1.395
			c0-0.729-0.222-1.259-0.661-1.586c-0.445-0.319-1.19-0.488-2.236-0.488h-4.893l-1.469,6.893H181.514z"/>
	</g>
	<g>
		<path fill="#EC1C24" d="M92.727,25.853c1.078-5.721,7.739-4.368,6.502,1.321L85.907,79.452c-0.114,0.455-0.793,0.317-0.729-0.137
			L92.727,25.853z"/>
	</g>
	<g>
		<path fill="#EC1C24" d="M98.202,10.268c2.031,0,3.681,1.65,3.681,3.679c0,2.031-1.649,3.68-3.681,3.68
			c-2.028,0-3.679-1.649-3.679-3.68C94.523,11.918,96.174,10.268,98.202,10.268z"/>
	</g>
</g>
</svg>
